<?xml version="1.0" encoding="UTF-8"?>
<svg id="Layer_2" data-name="Layer 2" xmlns="http://www.w3.org/2000/svg" viewBox="0 0 506.56 521.23">
  <defs>
    <style>
      .cls-1 {
        fill: #fff;
      }
    </style>
  </defs>
  <g id="Layer_1-2" data-name="Layer 1">
    <g>
      <path d="M225.1,243.85c.62-.3,1.25-.6,1.87-.9t.02-.01h.14s0,0,0,0c.05-.04,.07-.07,.11-.11,12.91-5.78,24.62-4.77,34.51,7.28,.35-13.88-15.51-25.07-31.54-22.27,6.01,1.21,11.71,.96,14.71,6.9-7.3,.14-13.12,2.84-17.68,8.09-.05,.02-.1,.05-.15,.07h-.01s-.07,.03-.11,.04c-.01,0-.01,.01-.02,.01-.76,.02-1.38,.31-1.85,.9Zm-.01,.01s-.02,.01-.03,.01c-.02,.01-.03,.01-.05,.02h0s.01,.02,.01,.04c-9.46-1.17-18.91-2.46-28.37,.89,19.64-2.1,36.73,3.78,51.79,16.08-1.29,1.51-3.09,1.1-4.66,1.01-4.94-.25-9.38,1.02-14.74,4.41,8.56-1.76,15.82-1.29,23.08-.72,2.26,1.03,3.1,3.81,5.62,4.52l.13-.06c.75,3.82,3.66,6.45,5.33,9.75,.84,2.09,1.65,4.19,4.13,6.71-.68-3.7-1.71-5.82-3.19-7.75-1.74-2.95-3.48-5.9-5.22-8.84,2.41-1.56,3.79,.74,5.44,1.6,3.8,1.99,6.27,5.64,9.61,8.24,.02,.04,.03,.09,.05,.13,.04,.04,.08,.07,.12,.12,.14,.29,.27,.59,.4,.89,.04-.14,.16-.32,.11-.39-.15-.19-.33-.35-.51-.5-.02-.06-.04-.11-.07-.17-.03-.03-.07-.05-.1-.08-4.8-12.81-14.12-20.64-27.05-24.5-3.78-1.96-7.55-3.91-11.32-5.87-3.52-1.83-7.03-3.66-10.55-5.49,.01-.02,.02-.04,.04-.05ZM499.78,24.95c5.63,5.23,7.91,11.89,5.69,17.11-.17,.2-.34,.41-.51,.61-.03-.21-.07-.43-.12-.64-4.75,5.69-9.46,11.43-14.28,17.07-7.52,8.8-15.29,17.39-22.57,26.41-5.08,6.29-7.23,14.1-11.84,20.6-4.45,6.3-9.93,9.59-16.04,9.28-2.7-.24-5.53-1.18-8.44-2.86-10.09-5.84-19.05-13.32-26.3-22.55-16.76-21.34-32.77-43.33-52.66-61.99-5.66-5.31-11.62-10.42-19.16-13.07-1.41-.96-2.86-1.78-4.9-1.76-.74-.05-1.57,.02-2.51,.25,2.78,1.44,4.82,2.5,6.86,3.56,9.67,7.34,17.82,16.22,25.1,25.84,10.25,13.52,20.4,27.13,30.09,41.05,3.63,5.23,9.42,8.96,10.98,15.61-.58-.06-1.16-.11-1.74-.15-.47-.04-.94-.07-1.41-.09-6.36-.42-12.65-.04-18.76,2.22-.37,.14-.79,.29-1.17,.32-.01,.01-.01,0-.01,0-.2-.07-.36-.22-.48-.46-.28-.59-.01-1.66,.36-2.31,1.04-1.82,2.26-3.54,3.51-5.44-.83-.27-1.61-.41-2.35-.43-1.94-.21-3.6,.32-5.28,1.06-8.38,3.69-13.6,10.4-17.4,18.34-1.04,2.16-2.14,3.63-4.22,3.6-.26-.04-.54-.09-.83-.17-3.02-.8-5.39-2.13-6.01-5.73-.29-1.69,2.8-4.13-.48-4.83-.16-.03-.33-.05-.5-.03-.01-.01-.02-.01-.03-.01-1.55-.33-3.55,1.48-5.34,2.31-.83,.38-1.17,1.57-2.43,1.63-.08-.02-.17-.04-.26-.06,1.29-6.77,5.13-12.56,7.83-19.3-.2,.03-.4,.07-.59,.11l.06-.15c-10.91,1.91-17.47,8.59-23.1,18.05-.19-3.39-.09-5.6,.32-7.86,1.47-8.33,3.63-16.47,6.24-24.5,.79-2.46,.29-3.52-1.95-3.56-.05-.01-.11-.02-.17-.01-.3-.04-.65-.04-1.03-.02-1.68,.08-3.25,.43-4.87,.89-4.65,1.34-8.18,4.46-11.6,7.53-1.23,1.1-2.21,1.59-3.03,1.62-1.13-.23-1.93-1.45-2.66-3.21-.92-2.24-1.55-4.59-1.6-7.82-.17,.19-.34,.37-.5,.56,0-.2-.01-.39-.01-.59-4.17,4.56-5.99,9.11-3.69,14.11,7.14,15.59,7.69,32.08,7.21,48.74-.12,4.06-2.53,6.36-6.07,6.12-.08-.01-.16-.02-.23-.03-.43-.08-.88-.18-1.33-.32-2.9-.89-5.66-2.22-8.79-3.47,.02,.06,.05,.12,.07,.18-.19-.08-.38-.15-.57-.23,4.12,10.41,12.19,17.46,21.91,18.38,.15,.02,.29,.03,.44,.04,.26,.02,.51,.04,.74,.07,3.13,.35,3.92,1.34,3.9,4.72-.05,6.32,2.45,11.16,9.25,12.87,1.91,.48,3.5,1.86,3.52,4.23,.17,.04,.33,.09,.49,.13-.05,.15-.11,.3-.17,.44-.11-.02-.21-.05-.32-.08-1.63,4.51-5.57,7.89-6.78,13.76,4.19-2.88,8.14-2.53,12.05-2.43,2.33,.06,3.4,.91,2.33,3.41-2.5,5.82-.21,10.85,2.6,15.85,.86,1.54,3,2.27,2.75,4.46h.26c-.09,.01-.17,.01-.26,.01-.25,.4-.5,.8-.77,1.2-.29,.12-.58,.24-.86,.37,.15-.16,.31-.33,.46-.49,.07-.03,.15-.06,.22-.09,0-.02,.03-.04,.04-.06-.03,0-.07-.01-.1-.02-.05,.06-.11,.11-.16,.17-7.8,3.12-13.05,8.65-15.66,16.66t-.01,.02c-.05,.05-.1,.11-.15,.16-.01,.02-.01,.05-.02,.07-.63-.02-.77,.46-.9,.94,.29,0,.49-.11,.62-.28-.04,.11-.07,.23-.1,.35h-.09c-.01,.07-.03,.15-.04,.22-.2,.31-.41,.61-.61,.91,.14,.07,.27,.13,.41,.2,.07-.37,.13-.74,.2-1.11,.04-.05,.07-.11,.11-.16,.01-.02,.01-.04,.02-.06,.6-.01,.78-.44,.9-.94,.03,0,.06,0,.09,.01,.03-.08,.05-.16,.08-.24,5.14-5.47,10.27-10.93,15.41-16.4h.01c.96,.2,1.67-.09,2.25-.68,.43-.26,.79-.67,1.1-1.17,.14-2.05,.98-4.36,2.21-5.56,.75-.51,1.63-.58,2.55,0,6.57,4.13,12.37,1.85,18.6,.46,3.47-.77,6.72-.34,8.27,3.55,.89,2.25,2.77,3.25,4.8,4.05,6.71,2.62,12.84-.29,19.36-1.72-.06-.08-.13-.16-.21-.24,.26-.07,.51-.12,.77-.18-1.88-2.38-5.72-3.6-4.92-6.26,.21-.72,.6-1.29,1.11-1.74,0,0,.01-.02,.02-.02,1.58-1.04,3.89-1.35,5.87-1.67,.17-.03,.33-.02,.5-.04,1.19-.14,2.08-.5,2.68-1.08,1.31-.78,1.78-2.19,1.52-4.16-.68-5.14-2.65-9.53-6.9-12.78-5.2-3.99-11.05-6.62-17.27-8.6-.98-.32-2.64-.08-2.7-1.68-.02-.54,.18-.93,.5-1.24,.39-.24,.83-.45,1.23-.68,7.66-4.48,15.97-5.1,24.53-4.16,6.49,.71,12.96,1.51,20.19,2.36l-.36-.54c.31,.04,.63,.07,.94,.11-2.9-4.53-6.72-6.77-10.42-9.18-2.15-1.4-6.39-1.56-6.33-3.77,.03-1.02,.5-1.79,1.22-2.42l.02-.02c1.39-.95,3.33-1.56,4.84-2.32,.07-.04,.12-.12,.16-.24h0c.14-.07,.28-.13,.41-.2,.19-.1,.2-.54,.38-1.06-5.52-2.03-11.28-2.25-17.04-2.5-2.29-.64-4.53-1.36-6.44-3.84,9.44-.89,18.19-.31,27,.38-6.97-4.62-14.63-6.79-22.8-7.42-.01,0-.02-.01-.04,0-.17-.02-.35-.04-.52-.05-5.39-.42-10.49,1.11-15.61,2.39-.52,.13-.98,.21-1.37,.22-.7-.17-.97-.77-.58-2.1,2.23-7.8,6.86-14.24,15.67-13.76,1.08,.08,2.21,.27,3.41,.58,3.7,.93,6.8,3.19,10.57,4.09-.01-.03-.01-.07-.02-.1,.19,.05,.39,.1,.59,.15-1.36-8.35-5.31-11.87-13.79-12.46-.1-.01-.19-.02-.28-.02-.17-.02-.34-.03-.52-.04-.45-.03-.94,.02-1.42,0h-.02c-.63-.1-1.16-.4-1.43-1.22-.4-1.28,.78-2.15,1.63-2.88,4.18-3.62,8.65-6.74,14.21-7.87,8.17,5.84,8.31,6.31,5.69,15.38-3.11,10.77,7.75,25.2,19.69,26.09,.01,0,.02,0,.03,0,.18,.03,.37,.05,.55,.06,.16,.02,.37-.48,.55-.75,5.41,3.73,11.61,5.24,18.43,6.48-4.11,4.23-9.43,6.05-13.64,9.41-2.92,2.33-7.68,3.64-5.22,9.14,.45,1.01-.79,1.34-1.44,1.68-9.26,4.91-11,13.46-4.58,24.23,1.69,2.83,2.09,4.17-.97,6.46-9.54,7.17-10.44,15.66-2.89,26.94,2.42,3.63,3.27,5.86-1.24,8.38-2.1,1.18-4.75,3.36-4.13,6.26,.67,3.08,3.86,3.75,6.62,4.49,.76,.2,1.49,.53,2.51,.9-3.08,2.77-6.17,5.06-8.4,8.19-2.92,4.1-2.87,7.87,1.26,10.32,4.11,2.45,4.19,5.15,2.77,8.91-.64,1.68-.86,3.53-1.27,5.3-.17,.07-.34,.13-.5,.16-.03-.08-.05-.16-.08-.24-.6,.25-1.16,.32-1.7,.27-1.01-.2-1.95-.72-2.93-1.14-7.47-3.25-15.22-5.54-23.16-6.76-.57-.09-1.14-.17-1.72-.25-2.95-.43-5.94-.69-8.95-.81-18.15-.7-35.25,3.6-50.91,13.01-4.7,2.83-9.25,5.92-14.05,9.03-.35-4.29,2.91-7.31,2.97-11.14,.02-.01,.05-.03,.07-.04,.03-.06,.06-.12,.09-.17,.12-.06,.24-.13,.37-.19-.09,0-.21-.03-.25,.01-.05,.05-.08,.11-.12,.18-.05,.03-.11,.06-.16,.09v.12c-.18,.1-.36,.19-.54,.3,0-.12,.02-.25,.02-.38-9.45,5.05-17.78,11.44-24.04,20.28-.81,1.14-1.47,2.55-2.93,2.41t-.02,0c-.26-.08-.53-.19-.84-.36-3.22-1.78-6.56-2.9-9.99-3.55-.29-.06-.58-.11-.88-.17-4.49-.82-9.13-.87-13.8-.6-.57,.03-1.1,.01-1.6-.05-1.66-.36-2.93-1.34-4.26-2.85-5.74-6.56-12.32-12.21-20.43-15.63-3.11-1.31-6.25-2.53-9.54-3.06-.03,0-.07-.01-.1-.01-3.54-.63-7.23-.47-11.16,1.23,1.41,1.2,2.76,1.98,3.55,3.14,.77,1.13,2.67,2.12,1.72,3.77-.65,1.13-2.23,1.28-3.6,1.36-11.69,.71-22.88,3.7-33.75,7.83-8.99,3.41-17.22,8.14-24.01,15.77,.23,.06,.46,.12,.69,.15,3.42,.82,6.47-1.02,9.78-.51,.03,0,.05,.01,.07,.01,.53,.13,1.07,.32,1.62,.59-8.61,6.23-16.1,12.93-22.47,20.84-3.59,4.46-5.85,10.04-11,13.2,.04,.05,.07,.1,.1,.15-2.43,.38-3.88,2.43-5.86,3.69-1.14-5.32,.93-14.77,5.08-19.34,3-3.3,1.5-4.57-1.27-6.32-2.85-1.79-6.03-2.58-9.33-3.26,.94-4.75,3.66-8.05,7.02-10.83,2.16-1.78,3.21-3.53,2.05-6.36-.68-1.66-.77-3.57-1.33-5.3-2.58-8.06-6.58-10.46-15.88-9.3,1.92-3.66,3.74-7.06,5.49-10.5,.67-1.33,1.17-2.74,1.71-4.12,2.77-7.09,5.47-14.71,.16-21.27-5.66-7-13.95-8.38-23.15-6.7,8.25-6.63,11.88-15.07,10.85-25.42,6.78-13.87,7.52-28.26,3.83-43.05-.72-2.9-1.33-5.74-.97-8.81,1.05-9.05,1.67-18.15,2.88-27.17,2.56-19.22,5.56-38.41,11.93-56.79,4.44-12.81,12.17-23.46,23.79-30.89,.11,1.25-.32,2.3-1.09,3.37-4.7,6.51-7.1,13.8-7.8,21.64v.06c-.04,.43-.08,.86-.1,1.29-.04,.47-.07,.94-.09,1.42-1.07,.98-1.24,2.05-.17,3.65,.02-.22,.05-.43,.06-.63,.1,.19,.22,.4,.36,.61,.15-1.42,.26-2.45,.37-3.49,1.07-.61,1.45-1.64,1.98-2.7,3.43-6.96,7.35-13.48,12.86-19.15,2.93-3.02,7.2-4.16,9.78-7.5-1.34-.86-2.68-1.21-4-1.3-.06,0-.12,0-.17,0-2.78-.26-5.52,.69-8.21,.58-.12-.01-.25-.03-.37-.04v-.05h0c7.88-6.54,17.78-8.67,28.42-12.41-9.12-1.32-17.66-1.81-25.95-1.16-.79,.06-1.58,.13-2.37,.21-4.29,.43-8.51,1.19-12.72,2.3-18.05,4.78-26.7,17.9-30.55,35.06-4.64,20.67-3.64,41.88-5.89,62.79-2.16,19.95-6.06,39.27-15.52,57.18-2.1,3.97-3.92,5.95-6.33,6.1-1.75-.03-3.83-.97-6.54-2.76-9.27-6.08-16.56-14.29-23.61-22.65-16.11-19.11-30.92-39.2-45.39-59.57-4.28-6-7.74-12.65-13.13-17.84-1.94-13.75,1.95-21.42,14.07-27.73,.73-.39,1.45-.89,2.24-1.07,14.88-3.39,27.63-11.55,41.2-17.94,9.82-4.62,20.4-7.01,31.32-7.14,19.29-.24,37.74-5.33,56.27-9.75,22.03-5.26,43.77-5.76,65.99-.46,18.27,4.36,35.46,1,50.34-11.79,9.55-8.19,21.76-11.18,33.64-14.16,21.74-5.47,43.83-9.05,66.25-10.28,37.08-2.04,73.71,1.23,109.74,10.23,10.16,2.54,19.89,6.51,27.8,13.88Zm-19.69,29.09c.9-1.4-.44-2.4-1.03-3.52-4.08-7.81-10.33-13.83-16.73-19.6-10.13-9.14-22.07-14.31-35.88-15.01-13.02-.66-25.25,2.45-37.24,7.08-8.62,3.33-8.38,3-2.08,9.7,12.42,13.22,26.01,25.54,34.01,42.34,.14,.3,.79,.36,1.64,.71-.57-4.29,.23-8.16,.57-13.07,9.93,7.36,11.68,17.99,15.77,28.9,4.51-8.81,6.54-17.38,7.79-26.14,.81-5.64,1.67-6.48,7.42-5.23,1.29,.28,2.6,.51,3.85,.93,3.27,1.11,3.09-.41,2.05-2.61-1.38-2.93-2.8-5.84-4.15-8.68,1.59-1.11,2.35-.05,3.2,.26,5.59,2.01,11.19,4.01,17.12,4.8,1.25,.17,2.83,.45,3.69-.86Zm-81.72,206.17c.21,.07,.42,.15,.63,.22-5.04-4.55-11.78-7.67-19.33-9.22-.23-.05-.45-.1-.68-.14-17.39-3.52-39.07,1.19-54.6,15.5,.35,.24,.66,.34,.95,.35,1.06,.4,1.84-.53,2.74-.87,.02,0,.04,0,.05,.02,.68,1.81-1.54,1.74-2.06,2.77,.19,.02,.37,.02,.55,0-.02,.03-.04,.06-.06,.1,1.33,.11,2.49-.48,3.73-.83,11.02-3.18,22.46-5.57,33.68-3.83,9.99,1.56,17.25-1.79,24.38-7.47,3.07,1.06,6.17,2.13,10.16,3.52-.05-.04-.09-.08-.14-.12Zm-32.16-35.39c6.73-1.41,13.56-.72,20.34-1.35-3.83-1.19-7.67-1.77-11.52-1.87-.41,0-.81-.02-1.22-.02-3.53-.04-7.06,.33-10.61,1-7.92,1.49-14.67,5.71-21.74,9.17-.05-3.98,4.21-2.89,5.91-4.81h.11l.21-.15c.25,0,.45-.07,.37-.59-.26,.19-.51,.37-.77,.55,.1,0,.2,.02,.3,.03-.07,.01-.13,.05-.17,.11-.01,.02-.03,.03-.05,.05-.15,0-.31,.01-.46,.02t.02-.02h.1s.01-.01,.01-.01c.08-.06,.16-.11,.24-.18-.12,0-.23,.03-.3,.13h.01s-.01,0-.01,0c-.01,.02-.03,.03-.05,.05h0c-15.23,.35-27.43,12.66-29.54,30.26,.14-.31,.32-.51,.53-.63-.04,.21-.06,.43-.09,.64,.27-.62,.73-.8,1.24-.81,.51,.04,1.04,.15,1.52,.13,.89,.07,1.68-.09,1.87-1.65,2.98-1.44,4.16-4.79,6.92-6.46,13.08-5.41,26.63-8.02,40.7-8.02,.78,0,1.56,.01,2.35,.03,.79,.01,1.59,.04,2.38,.08h-.01c.15,0,.3,0,.45,0-10.26-5.06-21.41-4.55-32.3-5.55,6.6-6.03,14.79-8.36,23.26-10.15Zm-29.08-169.72c.04-9.15-2.22-17.22-5.63-24.76-4.95-10.96-13.61-14.26-22.91-9.73-.84,.41-2.24,.33-2.15,1.64,.08,1.06,1.3,1.37,2.11,1.93,7.61,5.27,14.83,10.84,20.28,18.64,2.69,3.87,4.96,8.06,8.3,12.28Zm-11.09,213.79s.02-.03,.02-.05c-.03,0-.05,0-.08,0-.04,.15-.07,.31-.11,.46,.05-.14,.11-.28,.17-.41Zm-6.98-37.89s.01-.04,.02-.06h-.03s.01-.01,.01-.01l-.07-.06c-.01,.07-.03,.15-.04,.22-.2,.31-.41,.61-.61,.91,.14,.07,.27,.13,.41,.2,.07-.37,.13-.74,.2-1.11,.03-.04,.05-.08,.08-.12l.03,.03Zm-1.92,52.75c.12-.06,.24-.13,.37-.19-.09,0-.21-.03-.25,.01-.05,.05-.08,.11-.12,.18-.05,.03-.11,.06-.16,.09l.07,.08c.03-.06,.06-.12,.09-.17Zm-.57,.17l-.07-.08v.12s.05-.03,.07-.04Zm-32-191.4c2.96-23.26-16.9-42.45-35.48-47.89,.79,3.04,1.53,6.03-.8,8.78-3.16-3.26-4.34-8.02-8.86-9.93-.78,3.51-.9,6.87-2.72,9.84-3.3-7.03-13.09-12.09-20.66-10.37,2.03,1.45,2.99,3.4,3.67,5.38,1.82,5.3,3.64,11.05,.18,16.06-7.78,11.25-7.01,22.73-2.33,35.22,.92-3.46,1.77-6.31,2.41-9.2,.32-1.43,.24-3.37,1.79-3.65,1.31-.23,1.83,1.62,2.58,2.69,4.64,6.61,8.59,13.6,12.08,21.82,2.23-5.19,2.82-9.67,2.58-14.3l.14-.12c5.18,1.45,8.53,5.34,11.87,9.12,4.55,5.13,7.5,11.27,10.35,18.83,3.08-12.67,3.96-23.99,.84-36.26,3.35,2.07,5.36,4.12,6.95,6.65,.62,.98,1.31,2.35,2.55,2.06,1.62-.39,1.41-2.08,1.31-3.37-.3-3.94,1.14-7.86,.13-11.83-.21-.84-.47-2.17,.73-2.6s1.54,.83,2.21,1.51c3.29,3.38,4.39,8.43,8.48,11.56Zm-16.7,194.97c-.1-.12-.21-.25-.32-.37-.1,.29-.25,.57-.29,.87-.02,.1,.18,.25,.28,.38,.11-.29,.22-.58,.33-.88Zm-13.34-8.34c.09-.03,.18-.08,.27-.13-12.93-12.16-38.72-12.62-58.74-3.41-1.43,.65-2.83,1.36-4.2,2.13h-.01c-1.82,1.01-3.58,2.11-5.26,3.3h-.01c-.83,.59-1.65,1.2-2.44,1.84-.8,.63-1.58,1.29-2.33,1.97-.75,.67-1.46,1.35-2.16,2.09h-.02c-.2,.15-.41,.28-.63,.41-.65,.39-1.29,.82-1.4,1.78,.03,0,.06,0,.08,0-.04,.12-.06,.24-.08,.37,1.44,.3,1.99-.63,2.53-1.57,1.25-.79,2.53-1.54,3.75-2.39,21.04-14.69,43.2-18.42,67.01-7.06,1.08,.51,2.29,1.86,3.91,.91-.09-.08-.18-.17-.27-.25Zm-29.25-63.25c.58-4.09-2.26-7.11-3.43-10.65-1.8-5.48-5.59-9.14-11.42-10.36-.38-2.39,.4-4.62,.92-6.88,.53-2.31,1.6-3.46,2.97-3.36,.69,.18,1.45,.66,2.23,1.44,1.07,1.06,2.17,1.68,3.29,1.78,.82,.18,1.64,.09,2.47-.3,1.71-.8,2.09-3,2-4.77-.26-5.3-.61-10.6-1.24-15.86-1.39-11.69-3.24-23.31,1.93-34.69,1.23-2.71,1.16-6.31-1.01-8.56-5.61-5.81-9.92-12.61-14.9-19.14-.05,.1-.1,.21-.14,.33-.1-.13-.2-.27-.3-.4-.94,1.78,0,5.39-2.1,5.24-.33-.09-.72-.24-1.19-.49-10.86-5.74-21.3-12.23-29.76-21.41-1.53-1.65-2.1-4.23-4.77-5.4,.01,.05,.01,.11,.02,.16-.15-.08-.3-.16-.46-.23,.76,6.84,2.67,12.73,6.68,17.82,.51,.64,1.31,1.28,.8,2.15-.41,.71-1.08,.83-1.76,.76h-.02c-.16-.03-.32-.07-.47-.11-2.35-.56-4.68-1.25-7.02-1.9-.01-.03-.03-.06-.04-.09-.05-.03-.1-.05-.16-.07-.1-.14-.19-.28-.28-.43,.01,.1-.02,.25,.03,.29,.07,.06,.16,.1,.25,.14,.02,.05,.05,.09,.08,.13l.12,.03,.03,.06c-.16-.04-.31-.09-.47-.13,0-.03-.03-.06-.04-.09-.05-.03-.1-.05-.16-.07-.1-.14-.19-.28-.28-.43,.01,.1-.02,.25,.03,.29,.07,.06,.16,.1,.25,.14,.02,.05,.05,.09,.08,.13l.12,.03c2.59,6.2,6.38,11.34,12.25,14.95,6.75,4.16,12.98,8.95,16.55,16.77-.47,.03-.91,.01-1.33-.05-1.43-.26-2.57-.89-3.73-1.42-8.32-3.81-16.9-6.98-25.89-8.62-1.76-.32-3.53-.7-5.32-1-.32-.06-.65-.11-.97-.16-.06,0-.12-.02-.18-.02-4.87-.77-9.83-.9-14.82,2.06,9.53,3.25,18.39,6.94,26.91,11.44,6.11,3.22,11.42,7.4,15.72,12.79,1,1.25,2.1,3.16,1.38,4.54-.33,.64-.79,.83-1.3,.79-.74-.19-1.56-.67-2.26-.84-5.62-1.31-11.24-2.66-16.9-3.58-.49-.08-.98-.16-1.47-.23-6.51-1-13.09-1.37-19.81-.37-7.37,1.09-14.54,2.7-18.78,9.82-.04,.01-.07,.02-.11,.03-.03,.03-.06,.05-.09,.08-.26,.02-.53,.03-.78,.06,.06,.16,.12,.31,.19,.47l.3-.27c.04,.11,.09,.22,.14,.34,.19-.17,.39-.35,.59-.53,.05,0,.09-.01,.14-.01,.02-.03,.04-.07,.06-.1,10.79-3.22,21.6-6.27,32.98-4.56,.27,.04,.54,.09,.81,.13,.38,.07,.76,.15,1.15,.23,5.79,1.22,11.68,2.15,17.25,6.61-10.41,2.37-19.56,5.04-27.78,10.26-7.57,4.81-14.72,9.98-18.9,18.26,.12,.01,.23,.01,.34,0v.2c-.29,.29-.59,.58-.88,.86-.04,.01-.08,.01-.12,.01l-.2,.34,.25-.28,.07-.07c.54-.04,.87-.28,.88-.86l.07-.07,.03-.06c1.97,.09,3.35-1.26,4.77-2.23,5.9-4.05,12.11-7.55,18.56-10.6,5.55-2.62,12.98-5.48,17.45-4.88,.38,.06,.73,.17,1.06,.3-17.98,12.27-18.49,12.74-19.6,18.02,.23,.08,.46,.13,.69,.15,.02,0,.04,0,.06,.01,1.25,.28,2.35-.29,3.51-.69,6.23-2.1,12.68-2.77,19.17-2.23,.86,.07,1.75,.13,2.63,.24,.13,.02,.26,.04,.38,.06,2.51,.43,4.82,1.43,5.99,4.46-5.41-.22-10.83-.69-16.24-.6-6.78,.13-12.43,3.05-17.18,7.91-2.13,2.18-1.14,3.25,1.1,3.61,.06,.01,.13,.02,.19,.03,3.29,.55,6.19,1.85,8.91,3.69,1.87,1.27,2.18,2.46,.34,4.3-3.52,3.51-6.81,7.27-10.1,11-3.86,4.39-7.14,9.16-8.69,14.88-.31,1.19-.96,2.74,.67,2.82,.39,.12,.98,.11,1.86-.09,6.09-1.41,12.1-1.95,18.02-1.05,4.44,.73,8.82,2.27,13.17,4.87-.05-.09-.1-.18-.16-.27,.2,.1,.4,.22,.6,.34-2.65-4.56-5.3-9.13-8.04-13.85,1.07-.31,2-.36,2.88-.25,.06,0,.11,.01,.17,.02,.59,.12,1.17,.29,1.75,.48,8.94,3,17.84,6.16,26.88,8.84,.86,.26,1.74,.46,2.61,.59,4.14,.73,8.24-.08,10.75-4.15,1.66-2.69,5.03-5.73,1.82-9.59,0-.04,0-.07-.02-.11t-.02,.01s0-.01-.01-.01h0v-.06h0c.04-2.94,.5-5.78,1.74-8.45,.22,.92,.53,1.84,1.53,1.84,.17,.06,.38,.08,.62,.06,1.27-.12,.74-1.56,.86-2.46Zm-43.61,68.94c-.75,.67-1.47,1.36-2.17,2.09h0s-.01,.01-.01,.01h.01s0,0,0,0h.01c.69-.72,1.41-1.41,2.16-2.1Zm-47.54-95.84l.03-.06h-.1l.07,.06Zm-.07,0c-.29,.29-.59,.58-.88,.86-.04,.01-.08,.01-.12,.01l-.2,.34,.25-.28,.07-.07c.54-.04,.87-.28,.88-.86Zm-31.81-124.23c1.62-3.85,1.31-5.19-3.23-4.91-7.28,.45-14.47,1.33-21.57,2.89-20.72,4.54-38.72,14.27-54.21,28.67-1.78,1.65-4.25,3.01-4.72,5.95,6.05-.53,11.78-1.02,17.5-1.55,1.24-.11,2.59-1.55,3.65-.1,1,1.39-.53,2.37-1.13,3.49-6.99,13.27-7.06,26.6-.3,39.98,.92,1.83,1.36,2.83,3.81,1.02,3.68-2.7,8.04-4.46,12.59-5.63-.05,9.63,2.91,14.96,10.05,16.78-2.7-3.25-2.98-6.57-2.44-9.84,.57-3.48,2.77-6.7,6.04-7.18,2.76-.41,2.87,3.54,3.61,5.62,1.91,5.41,2.96,11.12,5.59,16.43,1.48-1.51,1.37-3.18,1.69-4.8,2.39-12.14,2.71-24.61,5.79-36.63,4.4-17.2,10.42-33.85,17.28-50.19Z"/>
      <path d="M504.96,42.67c.77,4.48-.56,8.7-3,12.18-11.33,16.17-19.51,34.35-31.96,49.77-3.24,4.02-6.93,7.63-10.92,10.92-10.64,8.75-22.86,8.51-35.46,6.34-1.8-.31-3.82-2.34-5.48-.18-1.45,1.88-.66,4.23,.1,6.19,1.99,5.18,5.04,9.7,9.04,13.59,1.04,1.01,2.65,1.55,2.86,3.29-.17,.25-.36,.71-.52,.74-11.72-1.27-22.21-15.43-19.15-26.04,2.64-9.13,2.48-9.55-5.86-15.5-.14,.03-.27,.05-.4,.08-.06-.04-.11-.08-.17-.12-.71-2.49-2.85-3.41-4.87-4.45h0c.19,0,.38,.02,.57,.04-1.55-6.66-7.36-10.39-10.99-15.62-9.69-13.93-19.85-27.54-30.11-41.06-7.28-9.63-15.44-18.51-25.11-25.85-.18-.09-.35-.18-.53-.27,.01-.61,.01-1.21,.02-1.82,7.54,2.65,13.49,7.76,19.15,13.07,19.88,18.65,35.88,40.64,52.63,61.97,7.25,9.23,16.2,16.71,26.28,22.55,3.12,1.81,6.15,2.75,9.03,2.9,6.35,.56,12.05-2.73,16.64-9.24,4.61-6.5,6.76-14.31,11.85-20.6,7.28-9.03,15.06-17.62,22.58-26.42,4.65-5.44,9.2-10.97,13.78-16.46Z"/>
      <path d="M504.84,42.03c.05,.21,.09,.43,.12,.64-4.58,5.49-9.13,11.02-13.78,16.46-7.52,8.8-15.3,17.39-22.58,26.42-5.09,6.29-7.24,14.1-11.85,20.6-4.59,6.51-10.29,9.8-16.64,9.24,6.11,.31,11.59-2.98,16.04-9.28,4.61-6.5,6.76-14.31,11.84-20.6,7.28-9.02,15.05-17.61,22.57-26.41,4.82-5.64,9.53-11.38,14.28-17.07Z"/>
      <path d="M479.06,50.52c.59,1.12,1.93,2.12,1.03,3.52-.86,1.31-2.44,1.03-3.69,.86-5.93-.79-11.53-2.79-17.12-4.8-.85-.31-1.61-1.37-3.2-.26,1.35,2.84,2.77,5.75,4.15,8.68,1.04,2.2,1.22,3.72-2.05,2.61-1.25-.42-2.56-.65-3.85-.93-5.75-1.25-6.61-.41-7.42,5.23-1.25,8.76-3.28,17.33-7.79,26.14-4.09-10.91-5.84-21.54-15.77-28.9-.34,4.91-1.14,8.78-.57,13.07-.85-.35-1.5-.41-1.64-.71-8-16.8-21.59-29.12-34.01-42.34-6.3-6.7-6.54-6.37,2.08-9.7,11.99-4.63,24.22-7.74,37.24-7.08,13.81,.7,25.75,5.87,35.88,15.01,6.4,5.77,12.65,11.79,16.73,19.6Z"/>
      <path d="M479.32,345.55c-5.53,1.18-11.11-.85-16.55,.36-.77,.18-1.82-.21-2.21,.68-.55,1.22,.62,1.65,1.34,2.29,1.84,1.63,3.64,3.3,5.98,5.44-4.66,1.58-8.93,3.15-12.24,6.43-4.08,4.03-3.45,7.34,1.51,10.08,4.74,2.62,8.62,6.63,13.6,8.97,1.59,.75,.9,1.76,.09,2.79-3.23,4.07-6.73,7.9-11.77,9.6-3.38,1.14-6.22,3.14-9.24,4.82-4.84,2.7-4.95,6.76-.64,10.36,3.09,2.56,7.18,3.14,11.09,5.56-6.47,3.47-13.11,4.71-19.54,6.36-3.54,.91-4.26,2.57-5.04,5.98-2.12,9.2-.21,17.49,3.69,25.66,1.33,2.8,.4,3.78-2.64,4.01-7.53,.57-15.09,6.8-16.71,13.39-3.69,2.15-7.39,4.3-11.08,6.45-14.9,5.36-29.67,3.15-45.15-1.33,1.99,5.31,6.78,7.44,9.33,12.07-9.98,1.04-18.81-1.37-27.35-4.89-9.16-3.78-17.1-9.51-24.01-16.6-2.49-2.56-3.6-2.17-4.93,1.09-4.03,9.85-10.15,18.23-18.55,24.86-1.18,.93-2.27,2.28-3.9,1.74-7.13-2.35-11.35,1.96-15.12,6.74-5.16,6.55-8.57,14.14-12.21,22.52-2.97-7.97-8.51-13.38-13.49-19.23-2.7-3.16-4.95-3.95-7.84-.19-1.68,2.19-3.98,3.9-6.32,6.13-2.96-14.77-11.08-26.01-20.89-37.17-.79,4.19-1.24,7.62-2.71,10.76-1.77,3.76-4.62,6.44-8.31,8.26-2.21,1.1-4.95,2.46-6.89,1.35-1.63-.94,.18-3.65,.4-5.58,.97-8.26-1.02-10.5-9.61-10.56-1.57-.02-2.82,.16-3.28-1.98-2.78-13-12.68-17.74-24.18-20.55-6.3-2.36-13.18-1.88-19.77-3.57,10.94-12.64,11.96-26.56,6.85-41.27-1.87-5.4-5.06-10.11-11.8-10.33,.8-4.52,3.73-8.17,5-12.59,1.22-4.29-.23-5.53-3.86-6.67-3.4-1.07-6.95-.81-10.42-2.39-3.99-1.82-2.44-3.56-.7-4.86,5.55-4.14,8.21-9.77,8.86-16.34,.24-2.34,3.92-3.51,1.98-6.3,.1-.03,.21-.04,.32-.05,5.15-3.16,7.41-8.75,11-13.21,6.38-7.91,13.87-14.61,22.49-20.84-.7-.35-1.39-.56-2.06-.68-.02,0-.04-.01-.07-.01-3.34-.74-6.38,1.12-9.78,.51-.08-.01-.17-.04-.26-.06,6.79-7.63,15.03-12.36,24.02-15.77,10.88-4.14,22.08-7.13,33.77-7.84,1.37-.08,2.96-.23,3.61-1.36,.95-1.65-.95-2.64-1.73-3.77-.79-1.16-2.14-1.94-3.55-3.14,3.77-1.63,7.3-1.85,10.7-1.31,.03,0,.07,.01,.1,.01,3.11,.57,6.11,1.73,9.07,2.98,8.1,3.42,14.68,9.07,20.41,15.62,1.45,1.66,2.85,2.67,4.75,2.94,.63,.14,1.32,.18,2.09,.14,4.5-.26,8.97-.22,13.31,.51,.3,.06,.59,.11,.88,.17,3.26,.68,6.43,1.77,9.49,3.46,.52,.28,.96,.42,1.34,.45t.02,0c1.83,.54,2.54-1.05,3.44-2.32,6.14-8.68,14.27-14.99,23.51-19.99-.26,3.77-3.49,6.81-2.91,11.16,.16-.1,.32-.21,.48-.32,.01,.13,.02,.26,.04,.4,4.98-3.22,9.67-6.43,14.54-9.35,15.67-9.41,32.78-13.71,50.94-13.01,2.82,.11,5.61,.35,8.39,.73,.58,.08,1.15,.16,1.72,.25,7.74,1.25,15.3,3.5,22.59,6.68,1.16,.5,2.27,1.15,3.5,1.22,.56,.13,1.15,.14,1.78-.03,1.72,4.83,6.79,5.25,10.37,7.57,16.41,10.63,30.67,23.43,41.54,39.86,3.36,5.09,7.37,9.75,9.38,16.05Zm-23.43,7.54c-4.3-12.13-8.83-23.1-15.02-33.25-6.23-10.21-13.33-19.91-23.13-26.99-19.21-13.89-39.79-12.35-60.59-4.23-2.43,.95-4.64,2.82-6.74,4.85-6.4,6.17-13.1,12.09-23.42,9.56-3.92-.96-8.17-.05-11.96,1.86-3.78,.45-7.8-.46-11.34,1.18-9.15,4.23-19.32,1.92-28.65,4.76-.25-.22-.45-.57-.73-.64-19.73-4.94-39.75-7.62-60.08-6.18-8.16,.58-16.25,2.25-23.34,7.25-5.67,4.01-9.86,9.66-15.88,13.25-3.99,2.39-6.84,6.19-10.14,9.44-7.11,6.99-11.23,15.98-16.83,23.94-2.31,3.28-6.45,5.44-6.95,9.97-.12,.05-.25,.08-.34,.15-.05,.05-.05,.17-.07,.26,.14-.13,.28-.27,.42-.4,2.17,.01,4.35-.15,6.5,.05,5.69,.52,9.22,3.99,7.19,8.28-2.7,5.72,.6,7.17,4.21,9.73,8.76,6.21,14.14,14.44,12.88,25.72-.71,6.41-2.1,12.58-5.54,18.33-2.67,4.46-1.55,5.76,3.56,5.89,1.98,.05,4,.08,5.94,.43,9.89,1.8,19.58,.09,28.97-2.47,12.31-3.35,20.02-12.06,23.63-24.11,1.09-3.64,3.1-4.61,6.31-4.85,10.86-.79,21.18-3.24,30.08-9.97,19.9,1.09,39.66,.06,59.21-3.95,.35,6.27,5.44,7.78,9.95,8.77,7.23,1.58,14.71,2.03,22.05,3.16,8.5,1.31,17.05,2.55,24.74,6.79,1.56,.86,3.3,2.67,4.7,1.21,1.47-1.53,.25-3.77-.77-5.53-.33-.56-.8-1.05-1.24-1.55-1.68-1.87-1.41-2.86,1.24-2.96,10.48-.38,20.97-.19,31.03,2.96,4.53,1.42,6.37,.45,8.21-3.79,2.94-6.77,8.2-11.02,16-11.14,2.62-.05,5.06-.56,7.67-1.64-3.49-6.1-6.94-11.87-11.56-16.44-3.16-3.13-2.15-4.38,.59-5.94,4.73-2.71,6.44-6.59,4.87-11.74-.82-2.7,.33-3.08,2.6-3.29,4.04-.36,7.71,.59,11.77,3.27Zm-77.25,101.57c6.03,2.17,11.61,6.19,18.99,4.88-2.52-2.67-4.66-4.95-6.81-7.21-4.2-4.44-9.82-8.17-11.34-14.21-1.47-5.83-4.92-9.69-9.05-13.22-4.02-3.44-8.08-7.16-12.77-9.41-7.3-3.5-12.88-4.86-16.91,1.39-2.02,3.12-3.94,3.32-7.03,1.9-3.32-1.54-6.93-2.14-10.67-1.99-1.79,.08-2.98,1.08-4.44,1.84-2.9,1.5,.32,6.61-3.39,6.37-2.42-.16-3.33-4.08-5.93-5.65-9.15-5.5-18.52-9.36-29.36-11.03-14.81-2.28-26.67,2.02-37.33,11.54-9.94,8.88-13.4,21.03-16.39,33.35-.21,.89-.17,2.28,.37,2.82,1.15,1.18,2.01-.36,2.92-.88,2.42-1.41,4.83-2.83,7.16-4.37,2.36-1.57,3.62-.78,4.43,1.68,1.97,5.99,4.44,11.79,6.13,17.89,1.42,5.15,3.59,10.1,5.52,15.39,1.83-1.49,2.61-2.99,3.36-4.68,3.8-8.62,7.81-17.13,11.69-25.71,1.38-3.04,2.79-2.38,4.83-.53,3.05,2.75,5.03,6.09,6.49,9.82,.32,.82,.71,1.65,1.57,1.76,1.26,.17,1.62-1,1.96-1.89,1.25-3.25,2.24-6.61,3.65-9.78,.94-2.13,1.96-3.64,4.58-.82,4.38,4.73,7.3,10.13,9.72,16.15,1.92-4.24,3.85-8.41,5.7-12.61,3.45-7.83,8.72-9.18,15.24-3.8,2.04,1.69,2.93,1.42,3.55-1.33,1.33-5.92,1.48-5.9,6.68-2.6,1.68,1.07,3.36,2.13,4.96,3.29,8.17,5.95,17.37,9.66,26.95,12.57,1.25,.38,2.92,.8,3.71-.4,.82-1.24-.48-2.44-1.15-3.55-2.7-4.54-5.43-9.05-8.09-13.62-.45-.77-1.39-1.75-.42-2.66,.9-.84,1.8-.1,2.68,.39,5.93,3.3,11.84,6.62,18.24,8.92Z"/>
      <path d="M440.87,319.84c6.19,10.15,10.72,21.12,15.02,33.25-4.06-2.68-7.73-3.63-11.77-3.27-2.27,.21-3.42,.59-2.6,3.29,1.57,5.15-.14,9.03-4.87,11.74-2.74,1.56-3.75,2.81-.59,5.94,4.62,4.57,8.07,10.34,11.56,16.44-2.61,1.08-5.05,1.59-7.67,1.64-7.8,.12-13.06,4.37-16,11.14-1.84,4.24-3.68,5.21-8.21,3.79-10.06-3.15-20.55-3.34-31.03-2.96-2.65,.1-2.92,1.09-1.24,2.96,.44,.5,.91,.99,1.24,1.55,1.02,1.76,2.24,4,.77,5.53-1.4,1.46-3.14-.35-4.7-1.21-7.69-4.24-16.24-5.48-24.74-6.79-7.34-1.13-14.82-1.58-22.05-3.16-4.51-.99-9.6-2.5-9.95-8.77,1.43-.79,4.55-.77,1.75-3.61,.11-.48,.06-1.12,.35-1.41,5.42-5.22,11.6-9.76,14.84-16.9,.08-.17,.61-.13,.93-.19,2.49,4.78,2.76,9.75,.96,14.78-1.29,3.61,.03,6.26,2.31,9.01,4.1,4.97,9.6,5.28,15.3,5.23,5.03-.05,5.37-.55,3.15-5-2.26-4.55-2.02-8.71,1.41-12.84,5.78,11.33,11.59,14.55,23.5,13.14-1.37-1.88-2.88-3.59-3.96-5.53-1.16-2.07-.81-4.36,.82-6.01,1.73-1.77,2.95,.35,4.26,1.09,1.59,.9,3.08,1.96,4.61,2.95,7.68,4.99,22.34,1.77,27.65-6.89-6.91,.76-13.31-1.13-19.62-3.07-7.92-2.43-13.89-7.59-18.4-14.48-.56-.85-1.23-1.75-.35-2.66,.78-.81,1.43,.13,2.15,.44,11.02,4.62,23.03,1.41,30.72-8.02,1.88-2.3,1.44-3.03-1.37-3.16-2.45-.1-4.08-1.8-4.75-3.84-.76-2.34,1.46-3.57,3.01-4.66,3.73-2.6,7.39-5.4,12.35-6.3-3.99-3.78-7.94-.87-11.67-1.15,4.26-7.45,11.57-6.49,19.44-6.61-5.74-5.25-11.08-9.67-17.68-12.29-8.77-3.48-17.77-6.26-27.04-8.1-.95-.18-2.2,.06-2.39-1.23-.26-1.78,1.28-1.43,2.32-1.78,2.17-.73,4.31-1.59,6.4-2.53,1.07-.48,3.1-.31,2.62-2.26-.43-1.71-2.19-1.07-3.43-1.17-4.83-.37-9.61,.2-14.34,1.05-8.74,1.58-16.72,5.37-21.63,12.65-3.72,5.51-9.69,11.36-5.31,19.48,.14,.26,.13,.71-.01,.98-2.99,5.93-4.61,12.53-8.69,17.94-.22-2.96-.23-5.84,.44-8.82,1.84-8.24-3.69-19.21-10.86-22.21-.53-.44-1.06-.87-1.59-1.31-3.89-6.54-10.28-9.08-17.21-10.77,3.79-1.91,8.04-2.82,11.96-1.86,10.32,2.53,17.02-3.39,23.42-9.56,2.1-2.03,4.31-3.9,6.74-4.85,20.8-8.12,41.38-9.66,60.59,4.23,9.8,7.08,16.9,16.78,23.13,26.99Z"/>
      <path class="cls-1" d="M433.43,325.26c-7.87,.12-15.18-.84-19.44,6.61l-.42,.23,.2,.2,.22-.43c3.73,.28,7.68-2.63,11.67,1.15-4.96,.9-8.62,3.7-12.35,6.3-1.55,1.09-3.77,2.32-3.01,4.66,.67,2.04,2.3,3.74,4.75,3.84,2.81,.13,3.25,.86,1.37,3.16-7.69,9.43-19.7,12.64-30.72,8.02-.72-.31-1.37-1.25-2.15-.44-.88,.91-.21,1.81,.35,2.66,4.51,6.89,10.48,12.05,18.4,14.48,6.31,1.94,12.71,3.83,19.62,3.07-5.31,8.66-19.97,11.88-27.65,6.89-1.53-.99-3.02-2.05-4.61-2.95-1.31-.74-2.53-2.86-4.26-1.09-1.63,1.65-1.98,3.94-.82,6.01,1.08,1.94,2.59,3.65,3.96,5.53-11.91,1.41-17.72-1.81-23.5-13.14-3.43,4.13-3.67,8.29-1.41,12.84,2.22,4.45,1.88,4.95-3.15,5-5.7,.05-11.2-.26-15.3-5.23-2.28-2.75-3.6-5.4-2.31-9.01,1.8-5.03,1.53-10-.96-14.78-.16-7.05,2.66-13.77,2.34-20.84,4.08-5.41,5.7-12.01,8.69-17.94,.14-.27,.15-.72,.01-.98-4.38-8.12,1.59-13.97,5.31-19.48,4.91-7.28,12.89-11.07,21.63-12.65,4.73-.85,9.51-1.42,14.34-1.05,1.24,.1,3-.54,3.43,1.17,.48,1.95-1.55,1.78-2.62,2.26-2.09,.94-4.23,1.8-6.4,2.53-1.04,.35-2.58,0-2.32,1.78,.19,1.29,1.44,1.05,2.39,1.23,9.27,1.84,18.27,4.62,27.04,8.1,6.6,2.62,11.94,7.04,17.68,12.29Z"/>
      <path d="M429.62,145.51s-.02,0-.03,0c-11.94-.89-22.8-15.32-19.69-26.09,2.62-9.07,2.48-9.54-5.69-15.38,.13-.03,.26-.05,.4-.08,8.34,5.95,8.5,6.37,5.86,15.5-3.06,10.61,7.43,24.77,19.15,26.04Z"/>
      <path d="M421.79,169.59l.36,.54c-7.23-.85-13.7-1.65-20.19-2.36-8.56-.94-16.87-.32-24.53,4.16-.4,.23-.84,.44-1.23,.68,.46-.47,1.18-.76,1.78-1.11,7.67-4.48,15.98-5.1,24.55-4.16,6.21,.68,12.41,1.44,19.26,2.25Z"/>
      <path d="M417.95,281.83c.03,.08,.05,.16,.08,.24-.63,.17-1.22,.16-1.78,.03,.54,.05,1.1-.02,1.7-.27Z"/>
      <path d="M411.74,160.96c3.54,2.31,7.2,4.47,10.05,8.63-6.85-.81-13.05-1.57-19.26-2.25-8.57-.94-16.88-.32-24.55,4.16-.6,.35-1.32,.64-1.78,1.11-.6,.38-1.07,.85-1.05,1.67,.06,1.6,1.72,1.36,2.7,1.68,6.21,1.98,12.06,4.61,17.26,8.6,4.24,3.25,6.21,7.64,6.89,12.78,.22,1.65-.07,2.91-.95,3.73-.55,.34-1.25,.55-2.11,.65-.17,.02-.33,.01-.5,.04-2.24,.36-4.89,.71-6.44,2.1-.01,0-.02,.02-.02,.02-.78,.51-1.38,1.21-1.67,2.17-.77,2.57,2.78,3.79,4.71,6.01-6.23,1.47-12.14,4.06-18.6,1.54-2.03-.8-3.91-1.8-4.8-4.05-1.55-3.9-4.8-4.33-8.27-3.56-6.24,1.39-12.04,3.68-18.61-.46-.95-.6-1.86-.5-2.63,.04-.12,.09-.24,.18-.35,.28-.04,.03-.07,.07-.11,.11-.02,0-.05,.02-.07,.04-.12,.09-.24,.18-.35,.28-1.29,1.17-2.18,3.55-2.32,5.66-.55,0-1.11-.01-1.66-.01l.27-.42c.25-2.19-1.89-2.93-2.75-4.47-2.81-5-5.1-10.03-2.6-15.85,1.07-2.5,0-3.35-2.33-3.41-3.92-.1-7.87-.45-12.06,2.43,1.16-5.64,4.85-8.99,6.58-13.25,9.02,2.33,11.14,1.2,17.03-6.73,8.44-11.35,20.52-15.82,34.15-16.68,7.79-.5,15.56,.27,23.43,1.72,.02-.23,.02-.44,.01-.65,.17-2.93-2.4-4.15-3.37-6.18,5.68,.25,11.37,.48,16.83,2.49-.11,.32-.16,.61-.22,.81h0c-1.67,.78-3.72,1.45-5,2.57l-.02,.02c-1.03,.7-1.76,1.59-1.79,2.86-.06,2.21,4.18,2.37,6.33,3.77Zm-56.53,42.77c7.02-.24,17.83-5.76,16.8-14.15,.07-9.26-6.75-16.62-15.43-16.66-8.51-.04-15.49,7.11-15.53,15.92-.03,7.79,6.54,15.15,14.16,14.89Z"/>
      <polygon points="413.99 331.87 413.77 332.3 413.57 332.1 413.99 331.87"/>
      <path d="M412.22,151.75c-.04,.12-.09,.2-.16,.24-1.51,.76-3.45,1.37-4.84,2.32,1.28-1.12,3.33-1.79,5-2.56Z"/>
      <path class="cls-1" d="M393.73,137.11c7.95,.68,15.42,2.86,22.22,7.37-8.8-.69-17.55-1.27-26.98-.38,1.91,2.48,4.15,3.2,6.44,3.84,.05,.17,.12,.34,.2,.5-.07,0-.13-.01-.2-.01,.71,2.22,3.44,3.39,3.57,6.19,0,.05-.01,.1-.01,.16-7.87-1.45-15.64-2.22-23.43-1.72-13.63,.86-25.71,5.33-34.15,16.68-5.85,7.88-7.98,9.05-16.86,6.78,.01-.02,.02-.05,.03-.07-.02-2.37-1.61-3.75-3.52-4.23-6.8-1.71-9.3-6.55-9.25-12.88,.02-3.55-.85-4.46-4.42-4.77-.23-.03-.48-.05-.74-.07-.15-.01-.29-.02-.44-.04-9.44-1.11-17.27-8.02-21.34-18.15,2.9,1.18,5.5,2.4,8.21,3.24,.64,.2,1.25,.32,1.84,.37,.08,.02,.15,.03,.23,.03,3.82,.5,6.46-1.82,6.58-6.07,.48-16.67-.07-33.16-7.21-48.75-2.21-4.8-.62-9.19,3.19-13.56,.12,2.93,.73,5.13,1.59,7.22,.83,2.01,1.76,3.32,3.17,3.25,.91,.2,2.05-.25,3.54-1.58,3.43-3.08,6.96-6.2,11.61-7.54,1.62-.46,3.19-.81,4.87-.89,.18-.01,.35-.01,.51-.01,.06,0,.12,0,.17,.01,1.79,.2,2.16,1.28,1.43,3.53-2.61,8.02-4.77,16.16-6.24,24.49-.44,2.44-.53,4.82-.27,8.7,.16-.27,.31-.53,.47-.8,0,.27,.03,.55,.05,.84,5.64-9.7,12.14-16.64,22.99-18.74-2.7,6.68-6.49,12.43-7.77,19.15,.3,.08,.56,.11,.79,.1,1.7,.29,2.03-1.16,2.96-1.59,1.6-.74,3.37-2.27,4.84-2.34,3.22,.71,.16,3.14,.45,4.82,.61,3.6,2.98,4.93,6,5.73,.5,.13,.96,.2,1.37,.21,2.44,.31,3.63-1.22,4.76-3.56,3.8-7.94,9.03-14.65,17.41-18.34,1.52-.67,3.02-1.17,4.73-1.1,.57,.06,1.16,.18,1.79,.39-1.24,1.9-2.46,3.62-3.5,5.44-.37,.65-.64,1.72-.36,2.31,.22,.45,.6,.56,1.03,.5,0,0,0,.01,.01,0,.48,.18,1.15-.07,1.72-.28,5.94-2.19,12.04-2.61,18.21-2.26,.47,.02,.94,.05,1.41,.09,.58,.05,1.16,.1,1.74,.16,2.02,1.04,4.16,1.96,4.87,4.45-5.74,1.06-10.32,4.24-14.6,7.95-.85,.73-2.03,1.6-1.63,2.88,.34,1.06,1.13,1.24,1.99,1.26h.02c.62,.09,1.32,0,1.94,.03,.09,0,.18,0,.28,.02,8.05,.7,11.86,4.22,13.2,12.31-3.51-.98-6.48-3.06-9.99-3.94-1.41-.36-2.73-.57-3.97-.63-9.17-.8-13.95,5.74-16.22,13.71-.48,1.65,.04,2.18,1.13,2.15,.47,.11,1.13,.02,1.92-.17,5.12-1.28,10.2-2.8,15.58-2.39,.02-.01,.03,0,.04,0Zm-32.06-14.2c-.46-.26-.75-.57-.96-.53-.97,.21-1.92,.5-2.87,.79-11.92,3.75-22.05,10.64-31.76,18.23-5.71,4.46-6.88,9.52-3.73,16.05,2.85,5.93,6.13,7.23,11.44,3.35,6.94-5.06,14.1-10.05,19.22-17.14,1.48-2.05,5.64-3.99,4.07-5.98-1.75-2.23-5.48,.36-8.33,.97-1.38,.29-2.97,2.22-4.01,.76-1.29-1.78,.72-3.27,1.83-4.6,4.18-4.97,9.81-8.14,15.1-11.9Z"/>
      <path d="M405.24,128.38s.01,.07,.02,.1c-3.77-.9-6.87-3.16-10.57-4.09-1.2-.31-2.33-.5-3.41-.58,1.24,.06,2.56,.27,3.97,.63,3.51,.88,6.48,2.96,9.99,3.94Z"/>
      <path d="M399.74,99.52c-.19-.02-.38-.04-.57-.05-1.56-6.65-7.35-10.38-10.98-15.61-9.69-13.92-19.84-27.53-30.09-41.05-7.28-9.62-15.43-18.5-25.1-25.84v-.25c.18,.09,.35,.18,.53,.27,9.67,7.34,17.83,16.22,25.11,25.85,10.26,13.52,20.42,27.13,30.11,41.06,3.63,5.23,9.44,8.96,10.99,15.62Z"/>
      <path d="M398.94,201.72c.86-.1,1.56-.31,2.11-.65-.6,.58-1.49,.94-2.68,1.08-.17,.02-.33,.01-.5,.04-1.98,.32-4.29,.63-5.87,1.67,1.55-1.39,4.2-1.74,6.44-2.1,.17-.03,.33-.02,.5-.04Z"/>
      <path class="cls-1" d="M399,260.43c-.21-.07-.42-.15-.63-.22-4.92-4.39-11.41-7.43-18.7-9,7.55,1.55,14.29,4.67,19.33,9.22Z"/>
      <path d="M395.61,148.44c.97,2.03,3.54,3.25,3.37,6.18-.13-2.8-2.86-3.97-3.57-6.19,.07,0,.13,.01,.2,.01Z"/>
      <path class="cls-1" d="M398.37,260.21s.09,.08,.14,.12c-3.99-1.39-7.09-2.46-10.16-3.52,.02-.02,.04-.03,.06-.05,3.05,1.05,6.08,2.11,9.96,3.45Z"/>
      <path class="cls-1" d="M397.63,459.54c-7.38,1.31-12.96-2.71-18.99-4.88-6.4-2.3-12.31-5.62-18.24-8.92-.88-.49-1.78-1.23-2.68-.39-.97,.91-.03,1.89,.42,2.66,2.66,4.57,5.39,9.08,8.09,13.62,.67,1.11,1.97,2.31,1.15,3.55-.79,1.2-2.46,.78-3.71,.4-9.58-2.91-18.78-6.62-26.95-12.57-1.6-1.16-3.28-2.22-4.96-3.29-5.2-3.3-5.35-3.32-6.68,2.6-.62,2.75-1.51,3.02-3.55,1.33-6.52-5.38-11.79-4.03-15.24,3.8-1.85,4.2-3.78,8.37-5.7,12.61-2.42-6.02-5.34-11.42-9.72-16.15-2.62-2.82-3.64-1.31-4.58,.82-1.41,3.17-2.4,6.53-3.65,9.78-.34,.89-.7,2.06-1.96,1.89-.86-.11-1.25-.94-1.57-1.76-1.46-3.73-3.44-7.07-6.49-9.82-2.04-1.85-3.45-2.51-4.83,.53-3.88,8.58-7.89,17.09-11.69,25.71-.75,1.69-1.53,3.19-3.36,4.68-1.93-5.29-4.1-10.24-5.52-15.39-1.69-6.1-4.16-11.9-6.13-17.89-.81-2.46-2.07-3.25-4.43-1.68-2.33,1.54-4.74,2.96-7.16,4.37-.91,.52-1.77,2.06-2.92,.88-.54-.54-.58-1.93-.37-2.82,2.99-12.32,6.45-24.47,16.39-33.35,10.66-9.52,22.52-13.82,37.33-11.54,10.84,1.67,20.21,5.53,29.36,11.03,2.6,1.57,3.51,5.49,5.93,5.65,3.71,.24,.49-4.87,3.39-6.37,1.46-.76,2.65-1.76,4.44-1.84,3.74-.15,7.35,.45,10.67,1.99,3.09,1.42,5.01,1.22,7.03-1.9,4.03-6.25,9.61-4.89,16.91-1.39,4.69,2.25,8.75,5.97,12.77,9.41,4.13,3.53,7.58,7.39,9.05,13.22,1.52,6.04,7.14,9.77,11.34,14.21,2.15,2.26,4.29,4.54,6.81,7.21Z"/>
      <path d="M395.02,212.06c.08,.08,.15,.16,.21,.24-6.52,1.43-12.65,4.34-19.36,1.72-2.03-.8-3.91-1.8-4.8-4.05-1.55-3.89-4.8-4.32-8.27-3.55-6.23,1.39-12.03,3.67-18.6-.46-.92-.58-1.8-.51-2.55,0,.04-.04,.07-.08,.11-.11,.11-.1,.23-.19,.35-.28,.77-.54,1.68-.64,2.63-.04,6.57,4.14,12.37,1.85,18.61,.46,3.47-.77,6.72-.34,8.27,3.56,.89,2.25,2.77,3.25,4.8,4.05,6.46,2.52,12.37-.07,18.6-1.54Z"/>
      <path d="M396.02,99.23c-6.17-.35-12.27,.07-18.21,2.26-.57,.21-1.24,.46-1.72,.28,.38-.03,.8-.18,1.17-.32,6.11-2.26,12.4-2.64,18.76-2.22Z"/>
      <path class="cls-1" d="M398.37,260.21c-3.88-1.34-6.91-2.4-9.96-3.45-1.9-2.12-4.42-1.81-6.87-1.76-.05-.03-.09-.07-.14-.1h.13c-.51-.35-.98-.89-1.54-1.02-14.98-3.37-29.14-.93-42.63,6.12-.56,.3-1.18,.63-1.11,1.29v.05c.01,.15,.05,.31,.14,.49-.52-.33-.96-.41-1.35-.31-.17,.04-.33,.11-.48,.21-.08,.04-.16,.1-.24,.18,0,0,0,.01-.01,.01-.3,.25-.57,.62-.83,1.02h-.01c-.31,.02-.62,.03-.9,.08-.01-.05-.03-.1-.04-.15h-.01s-.01-.02-.02-.02h0c-1.19,.06-2.4,.11-2.09,1.66-.04,0-.07,0-.11,0-.99-.27-1.63,.49-2.26,1.31l-.03,.02h0c-.94,.11-1.7,1.09-2.67,1.07-.14-.06-.3-.14-.46-.25,15.39-14.17,36.81-18.93,54.11-15.6,.23,.04,.45,.09,.68,.14,7.29,1.57,13.78,4.61,18.7,9Z"/>
      <path d="M393.17,137.06c.17,.01,.35,.03,.52,.05-5.38-.41-10.46,1.11-15.58,2.39-.79,.19-1.45,.28-1.92,.17,.39-.01,.85-.09,1.37-.22,5.12-1.28,10.22-2.81,15.61-2.39Z"/>
      <path d="M391.76,116.05c-.62-.04-1.32,.06-1.94-.03,.48,.01,.97-.04,1.42,0,.18,0,.35,.02,.52,.04Z"/>
      <path class="cls-1" d="M388.41,256.76s-.04,.03-.06,.05c-.14-.05-.29-.1-.43-.15-7.15,5.71-14.42,9.08-24.44,7.52-11.22-1.74-22.66,.65-33.68,3.83-1.07,.3-2.08,.78-3.18,.83,.6-.92,2.6-.93,2.02-2.6,.33,.08,.64,.1,.93,.04,.81,.06,1.47-.33,1.93-1.31,1.37,.04,2.55-.11,2-2h.01s.01,.01,.02,.01c.17,.1,.33,.17,.49,.22,.48,.19,.91,.21,1.28,.07,.51-.16,.91-.61,1.24-1.33h-.04s0,0,0,0h.01c14.53-5.36,29.55-7.68,45.03-6.94,2.45-.05,4.97-.36,6.87,1.76Z"/>
      <path class="cls-1" d="M387.92,256.66c.14,.05,.29,.1,.43,.15-7.13,5.68-14.39,9.03-24.38,7.47-11.22-1.74-22.66,.65-33.68,3.83-1.24,.35-2.4,.94-3.73,.83,.02-.04,.04-.07,.06-.1,1.1-.05,2.11-.53,3.18-.83,11.02-3.18,22.46-5.57,33.68-3.83,10.02,1.56,17.29-1.81,24.44-7.52Z"/>
      <path d="M388.44,273.95c-2.78-.38-5.57-.62-8.39-.73-18.16-.7-35.27,3.6-50.94,13.01-4.87,2.92-9.56,6.13-14.54,9.35-.02-.14-.03-.27-.04-.4,4.8-3.11,9.35-6.2,14.05-9.03,15.66-9.41,32.76-13.71,50.91-13.01,3.01,.12,6,.38,8.95,.81Z"/>
      <path class="cls-1" d="M336.5,261.94h-.01s-.02-.05-.04-.08c-.02-.01-.04-.03-.06-.03-.09-.18-.13-.34-.14-.49,.02,.13,.07,.27,.15,.43,.03,.01,.07,.04,.1,.06h0c14.49-5.33,29.46-7.66,44.89-6.94h.01c.05,.04,.09,.08,.14,.11-15.48-.74-30.5,1.58-45.03,6.94h-.01Z"/>
      <path class="cls-1" d="M381.53,254.9h-.14c-.45-.35-.89-.8-1.39-.92-14.98-3.37-29.14-.93-42.63,6.12-.53,.28-1.12,.6-1.12,1.19-.07-.66,.55-.99,1.11-1.29,13.49-7.05,27.65-9.49,42.63-6.12,.56,.13,1.03,.67,1.54,1.02Z"/>
      <path class="cls-1" d="M380,253.98c.5,.12,.94,.57,1.39,.91-15.43-.72-30.4,1.61-44.89,6.95h0s-.07-.06-.1-.07c-.08-.16-.13-.3-.15-.43v-.05c0-.59,.59-.91,1.12-1.19,13.49-7.05,27.65-9.49,42.63-6.12Z"/>
      <path class="cls-1" d="M386.55,223.47c-6.78,.63-13.61-.06-20.34,1.35-8.47,1.79-16.66,4.12-23.26,10.15,10.89,1,22.04,.49,32.3,5.55-.15,0-.3,0-.45-.02-10.26-5.05-21.4-4.54-32.29-5.54,6.6-6.03,14.79-8.36,23.26-10.15,6.73-1.41,13.56-.72,20.34-1.35-3.68-1.14-7.38-1.73-11.08-1.86,3.85,.1,7.69,.68,11.52,1.87Z"/>
      <path class="cls-1" d="M341.52,231.97h-.01s.02-.02,.03-.03c7.21-3.5,14.04-7.83,22.1-9.35,3.4-.65,6.79-1.01,10.17-1.01,.41,0,.81,.01,1.22,.02,3.7,.13,7.4,.72,11.08,1.86-6.78,.63-13.61-.06-20.34,1.35-8.47,1.79-16.66,4.12-23.26,10.15-5.68,3.31-10.58,7.42-13.57,13.45-2.76,1.67-3.94,5.02-6.92,6.46,.98-5.5,5.16-8.93,8.48-12.87,2.32-2.75,4.98-5.21,7.49-7.79l.48-.15v.15c1.3-.38,2.56-.79,3.05-2.24Z"/>
      <path d="M377.12,93.13c-1.71-.07-3.21,.43-4.73,1.1-8.38,3.69-13.61,10.4-17.41,18.34-1.13,2.34-2.32,3.87-4.76,3.56,2.08,.03,3.18-1.44,4.22-3.6,3.8-7.94,9.02-14.65,17.4-18.34,1.68-.74,3.34-1.27,5.28-1.06Z"/>
      <path class="cls-1" d="M374.81,240.51c-.79-.04-1.59-.07-2.38-.08,.79,.01,1.58,.04,2.37,.07h.01Z"/>
      <path class="cls-1" d="M363.2,222.58c3.55-.67,7.08-1.04,10.61-1-3.38,0-6.77,.36-10.17,1.01-8.06,1.52-14.89,5.85-22.1,9.35t0-.02s-.03-.01-.05-.02c-.01,0-.03-.01-.04-.01v-.14c7.07-3.46,13.82-7.68,21.74-9.17Z"/>
      <path class="cls-1" d="M374.8,240.5c-.79-.03-1.58-.06-2.37-.07-.79-.02-1.57-.03-2.35-.03-14.22-.06-27.93,2.54-41.14,8.01,2.99-6.03,7.89-10.14,13.57-13.45,10.89,1,22.03,.49,32.29,5.54Z"/>
      <path d="M372.01,189.58c1.03,8.39-9.78,13.91-16.8,14.15-7.62,.26-14.19-7.1-14.16-14.89,.04-8.81,7.02-15.96,15.53-15.92,8.68,.04,15.5,7.4,15.43,16.66Zm-6.64,1.31c1.09-3.68,.49-7.13-3.51-9.03-1.98-3.07-4.25-4.4-7.26-1.21-4.87,1.04-7.11,4.35-6.45,8.97,.53,3.71,2.86,6.66,7,7.26,4.59,.67,8.95-1.72,10.22-5.99Z"/>
      <path class="cls-1" d="M328.94,248.41c13.21-5.47,26.92-8.07,41.14-8.01-14.07,0-27.62,2.61-40.7,8.02-2.76,1.67-3.94,5.02-6.92,6.46-.19,1.56-.98,1.72-1.87,1.65,.7-.04,1.27-.36,1.43-1.66,2.98-1.44,4.16-4.79,6.92-6.46Z"/>
      <path class="cls-1" d="M378.99,251.07c-17.3-3.33-38.72,1.43-54.11,15.6,.16,.11,.32,.19,.46,.25-.29-.01-.6-.11-.95-.35,15.53-14.31,37.21-19.02,54.6-15.5Z"/>
      <path d="M361.86,181.86c4,1.9,4.6,5.35,3.51,9.03-1.27,4.27-5.63,6.66-10.22,5.99-4.14-.6-6.47-3.55-7-7.26-.66-4.62,1.58-7.93,6.45-8.97-1.19,2.75-.71,5.18,2.38,5.76,3.12,.59,4.83-1.33,4.88-4.55Z"/>
      <path class="cls-1" d="M360.71,122.38c.21-.04,.5,.27,.96,.53-5.29,3.76-10.92,6.93-15.1,11.9-1.11,1.33-3.12,2.82-1.83,4.6,1.04,1.46,2.63-.47,4.01-.76,2.85-.61,6.58-3.2,8.33-.97,1.57,1.99-2.59,3.93-4.07,5.98-5.12,7.09-12.28,12.08-19.22,17.14-5.31,3.88-8.59,2.58-11.44-3.35-3.15-6.53-1.98-11.59,3.73-16.05,9.71-7.59,19.84-14.48,31.76-18.23,.95-.29,1.9-.58,2.87-.79Z"/>
      <path d="M361.86,181.86c-.05,3.22-1.76,5.14-4.88,4.55-3.09-.58-3.57-3.01-2.38-5.76,3.01-3.19,5.28-1.86,7.26,1.21Z"/>
      <path d="M348.06,226.2c.08,.52-.12,.59-.37,.59l.03-.03s-.08,0-.12,.02h-.01c-.1-.01-.2-.03-.3-.03,.26-.18,.51-.36,.77-.55Z"/>
      <path d="M347.72,226.76l-.03,.03s-.06-.01-.09-.01c.04-.02,.08-.02,.12-.02Z"/>
      <path class="cls-1" d="M347.6,226.78s.06,.01,.09,.01l-.21,.15h-.11s.04-.03,.05-.05c.04-.06,.1-.1,.17-.11h.01Z"/>
      <path class="cls-1" d="M346.91,226.96c.15-.01,.31-.02,.46-.02-1.7,1.92-5.96,.83-5.91,4.81-.05,.03-.11,.06-.16,.08-.1-.03-.19-.06-.28-.08-.06-3.97,4.16-2.91,5.88-4.79h.01Z"/>
      <path d="M347.28,226.75c-.08,.07-.16,.12-.24,.18h-.01l-.04-.04h-.01c.07-.11,.18-.14,.3-.14Z"/>
      <path d="M347.04,226.94h-.11s.04-.03,.05-.05h.01l.04,.04h.01Z"/>
      <path class="cls-1" d="M346.93,226.93h0s-.01,.01-.02,.03h-.01c-14.83,.59-26.69,12.53-28.98,29.61-.21,.12-.39,.32-.53,.63,2.11-17.6,14.31-29.91,29.54-30.27Z"/>
      <path d="M333.83,316.97c7.17,3,12.7,13.97,10.86,22.21-.67,2.98-.66,5.86-.44,8.82,.32,7.07-2.5,13.79-2.34,20.84-.32,.06-.85,.02-.93,.19-3.24,7.14-9.42,11.68-14.84,16.9-.29,.29-.24,.93-.35,1.41-17.97-7.25-35.64-4.44-53.2,1.62-1.55,.53-3.02,1.31-4.52,1.98,1.48-10.54-2.88-18.75-9.7-26.4-7.69-8.62-13.22-21.61-2.21-35.47,1.17-1.47,2.46-2.08,4.21-2.04-.3,1.64-.6,3.29-.9,4.93-.62,1.33-.49,2.68-.09,4.03-.41,4.49,.21,8.8,2.1,12.91,.37,.71,.08,1.9,1.2,2.07l-.07,.1c-.04,.12-.14,.26-.12,.37,.04,.25,.15,.48,.23,.71,2.84,6.37,7.11,11.66,13.1,15.16,12.42,7.26,25.29,12.14,39.23,3.86,8.95-5.31,16.89-11.66,19.91-22.32,.09-.63,.18-1.24,.26-1.87,.08-.03,.15-.06,.21-.09-.01,.01-.02,.03-.03,.04,.03,.01,.06,.01,.09,.01l-.09,.04s.07-.02,.1-.03c.47-.18,.81-.46,.73-1.08-.1,.12-.19,.24-.28,.36,.02-.1,.02-.21,0-.33,4.96-5.79,1.86-12.36,1.55-18.58-.09-1.78,.12-4.43-2.38-5.49,.01,0,.01-.03,.01-.04,.11,.06,.23,.11,.37,.16v-.04s.03,.01,.04,.02c.47-1.13,.22-1.94-1.04-2.2v.02s-.08-.02-.11-.04c0,.06,0,.12,.01,.18-.07-.02-.15-.04-.23-.06-.12-.95-.23-1.91-.34-2.86Z"/>
      <path d="M342.37,105.36s.02,0,.03,.01c-1.47,.07-3.24,1.6-4.84,2.34-.93,.43-1.26,1.88-2.96,1.59,1.26-.06,1.6-1.25,2.43-1.63,1.79-.83,3.79-2.64,5.34-2.31Z"/>
      <path d="M341.64,89.9l-.06,.15c-10.85,2.1-17.35,9.04-22.99,18.74-.02-.29-.04-.57-.05-.84,5.63-9.46,12.19-16.14,23.1-18.05Z"/>
      <path class="cls-1" d="M341.55,231.92s0,0,0,.02-.02,.01-.03,.02h-.01v-.02s.01,0,.01-.01h-.01v-.03s.03,.01,.05,.02Z"/>
      <path class="cls-1" d="M341.47,231.97s.01,0,.02,0h.01s.01,0,.01,0h.01c-.49,1.45-1.75,1.86-3.05,2.24v-.15c1.13-.35,2.15-.82,2.58-2.1h.01c.08-.05,.16-.09,.24-.13,.05,.02,.1,.04,.16,.06v.02s.03,.01,.04,.02h0s-.03,.04-.03,.04Z"/>
      <path class="cls-1" d="M341.51,231.93s-.01,.01-.01,.01h0s.01-.01,.01-.01Z"/>
      <rect class="cls-1" x="341.5" y="231.96" width=".01" height="0"/>
      <path class="cls-1" d="M341.5,231.94v.02h-.01s-.01,0-.02,0l.03-.03Z"/>
      <path class="cls-1" d="M341.5,231.9v.03s-.02,0-.04-.02v-.02s.03,.01,.04,.01Z"/>
      <path class="cls-1" d="M341.46,231.75v.14c-.06-.02-.11-.04-.16-.06,.05-.02,.11-.05,.16-.08Z"/>
      <path class="cls-1" d="M341.3,231.83l-.24,.12h-.01c-.43,1.29-1.45,1.76-2.58,2.11,.01-1.45,.47-2.3,1.46-2.41,.32,.02,.68,.1,1.09,.25v-.15c.09,.02,.18,.05,.28,.08Z"/>
      <path class="cls-1" d="M346.9,226.96c-1.72,1.88-5.94,.82-5.88,4.79-.42-.11-.78-.14-1.09-.1-1.37-.12-1.96,.8-1.94,2.56-2.51,2.58-5.17,5.04-7.49,7.79-3.32,3.94-7.5,7.37-8.48,12.87-.16,1.3-.73,1.62-1.43,1.66-.51-.04-1.04-.15-1.52-.13-.42-.04-.82-.02-1.15,.17,2.29-17.08,14.15-29.02,28.98-29.61Z"/>
      <path class="cls-1" d="M341.02,231.75v.15c-.41-.15-.77-.23-1.09-.25,.31-.04,.67-.01,1.09,.1Z"/>
      <path d="M337.25,211.94c.55,0,1.11,.01,1.66,.01-.17,.28-.36,.52-.57,.74-.48,.29-1.04,.4-1.73,.25,.22-.34,.43-.67,.64-1Z"/>
      <path d="M336.61,212.94c.69,.15,1.25,.04,1.73-.25-.58,.59-1.29,.88-2.25,.68,.08-.09,.17-.19,.26-.28,.07-.03,.15-.06,.22-.09,.01-.02,.03-.04,.04-.06Z"/>
      <path d="M334.77,207.04c.86,1.54,3,2.28,2.75,4.47l-.27,.42h-.26c.25-2.19-1.89-2.92-2.75-4.46-2.81-5-5.1-10.03-2.6-15.85,1.07-2.5,0-3.35-2.33-3.41-3.91-.1-7.86-.45-12.05,2.43,1.21-5.87,5.15-9.25,6.78-13.76,.11,.03,.21,.06,.32,.08-1.73,4.26-5.42,7.61-6.58,13.25,4.19-2.88,8.14-2.53,12.06-2.43,2.33,.06,3.4,.91,2.33,3.41-2.5,5.82-.21,10.85,2.6,15.85Z"/>
      <path class="cls-1" d="M337.5,327.32c.31,6.22,3.41,12.79-1.55,18.58-.28,.36-.55,.71-.83,1.06-.3-.02-.62-.1-.89-.01-8.99,3.12-9.25,2.98-11.34-5.99-.93-3.99-3.96-5.93-7.8-4.99-3.72,.9-6.53,5.2-5.68,8.66,2.05,8.23,13.58,11.9,21.38,6.79,1.36-.9,2.33-2.45,4.17-2.57-3.02,10.66-10.96,17.01-19.91,22.32-13.94,8.28-26.81,3.4-39.23-3.86-5.99-3.5-10.26-8.79-13.1-15.16,.21-.28,.42-.55,.63-.83-.24-.09-.49-.17-.74-.25l.07-.1c.09,0,.18,.01,.29,.01,.08-1.1-.47-1.76-1.49-2.08-1.89-4.11-2.51-8.42-2.1-12.91,.14-.04,.28-.08,.42-.13,.02,.04,.03,.09,.04,.13,4.55-1.19,7.37-5.38,11.97-6.69,1.7-.48,3.39-.97,5.09-1.4l-.03-.11c5.62-1.42,11.27-2.3,17.2-1.07,2.36,.49,4.51-.12,6.69-1.15,10.04-4.72,20.37-6.61,31.16-2.59,1.36,.51,2.92,1.46,3.16-1.13,.01,0,.02,.01,.03,.01h0s.01-.02,.01-.03c2.5,1.06,2.29,3.71,2.38,5.49Zm-48.02,24.58c1.95-3.16,2.36-6.35-.32-9.11-2.37-2.45-5.47-4.19-8.92-2.37-3.51,1.84-3.63,4.99-2.72,8.6,1.06,4.24-1.02,6.66-5.4,6.81-1.57,.06-3.15-.12-4.87-.21,.57,2.06,1.9,2.75,3.58,3.26,8.2,2.5,14.21,.25,18.65-6.98Z"/>
      <path d="M337.25,211.94c-.21,.33-.42,.66-.64,1-.03,0-.07-.01-.1-.02-.05,.06-.11,.11-.16,.17-.04,.02-.09,.04-.13,.05,.27-.4,.52-.8,.77-1.2h.26Z"/>
      <path d="M331.5,30.34c3.41,7.54,5.67,15.61,5.63,24.76-3.34-4.22-5.61-8.41-8.3-12.28-5.45-7.8-12.67-13.37-20.28-18.64-.81-.56-2.03-.87-2.11-1.93-.09-1.31,1.31-1.23,2.15-1.64,9.3-4.53,17.96-1.23,22.91,9.73Z"/>
      <path d="M336.61,212.94s-.03,.04-.04,.06c-.07,.03-.15,.06-.22,.09,.05-.06,.11-.11,.16-.17,.03,0,.07,.02,.1,.02Z"/>
      <path class="cls-1" d="M336.53,261.94h.01c-.33,.72-.73,1.17-1.24,1.33,.49-.17,.88-.61,1.2-1.32h.03Z"/>
      <path class="cls-1" d="M336.5,261.94h0c-.32,.72-.71,1.16-1.2,1.33-.37,.14-.8,.12-1.28-.07-.16-.05-.32-.13-.49-.22-.01,0-.01-.01-.02-.01h-.01v-.03h-.01c.26-.4,.52-.76,.82-1.02,.01,0,.01-.01,.01-.01,.08-.07,.16-.13,.24-.18,.15-.1,.31-.17,.48-.21,.39-.08,.84,.01,1.37,.35-.01-.01-.01-.03-.02-.04,.02,0,.04,.02,.06,.03,.02,.03,.03,.05,.04,.08h.01Zm-.49-.1h.01s-.07-.06-.1-.07c.02,.03,.03,.06,.05,.09h.03s.01-.02,.01-.02Z"/>
      <path class="cls-1" d="M336.39,261.83s.01,.03,.02,.04c-.53-.34-.98-.43-1.37-.35,.39-.1,.83-.02,1.35,.31Z"/>
      <path d="M336.35,213.09c-.09,.09-.18,.19-.26,.28h-.01c.05-.08,.1-.15,.14-.23,.04,0,.09-.03,.13-.05Z"/>
      <path class="cls-1" d="M336.23,345.87c.08,.62-.26,.9-.73,1.08h0s-.01-.01-.01-.01c-.03,0-.06,0-.09-.01,.01-.01,.02-.03,.03-.04,0,0,.02-.01,.02-.02,.26-.14,.45-.33,.5-.64,.09-.12,.18-.24,.28-.36Z"/>
      <path d="M336.08,212.87s-.03,.04-.04,.06l-.06-.08s.07,.02,.1,.02Z"/>
      <path d="M335.98,212.85l.06,.08c-.07,.03-.15,.06-.22,.09,.05-.06,.11-.11,.16-.17Z"/>
      <path class="cls-1" d="M336.02,261.83h-.01s-.01,.02-.01,.02h-.03s-.03-.05-.05-.08c.03,.01,.07,.04,.1,.06Z"/>
      <path class="cls-1" d="M335.45,346.87c.17-.21,.33-.42,.5-.64-.05,.31-.24,.5-.5,.64Z"/>
      <path d="M335.82,213.02c-.15,.16-.31,.33-.46,.49-6.95,3.04-11.75,8.11-14.34,15.26-.28,.3-.57,.61-.86,.91,2.61-8.01,7.86-13.54,15.66-16.66Z"/>
      <path d="M334.5,319.73c1.26,.26,1.51,1.07,1.04,2.2-.01-.01-.03-.01-.04-.02v.04c-.14-.05-.26-.1-.37-.16,.38-.94,.2-1.62-.73-1.9-.01-.06-.01-.12-.01-.18,.03,.02,.08,.03,.11,.04v-.02Zm1.03,2.13l-.03-.05v.04s.02,.01,.03,.01Zm-1.03-2.01v-.02s-.07,0-.1-.02c.03,.02,.07,.03,.1,.04Z"/>
      <path d="M335.5,321.81l.03,.05s-.02-.01-.03-.01v-.04Z"/>
      <path class="cls-1" d="M335.5,346.94h0s-.07,.03-.1,.04l.09-.04h.01Z"/>
      <path class="cls-1" d="M335.22,346.98c-.08,.63-.17,1.24-.26,1.87-1.84,.12-2.81,1.67-4.17,2.57-7.8,5.11-19.33,1.44-21.38-6.79-.85-3.46,1.96-7.76,5.68-8.66,3.84-.94,6.87,1,7.8,4.99,2.09,8.97,2.35,9.11,11.34,5.99,.27-.09,.59-.01,.89,.01-.01,.02-.03,.05-.05,.07,.02-.01,.03-.01,.05-.02,.03-.01,.07-.02,.1-.03Z"/>
      <path d="M334.4,319.89c.93,.28,1.11,.96,.73,1.9-.7-.41-.72-1.15-.73-1.9Z"/>
      <path class="cls-1" d="M335.21,346.97l-.09,.04s-.03,.01-.05,.02c.02-.02,.04-.05,.05-.07,.03,.01,.06,.01,.09,.01Z"/>
      <path d="M335.12,321.83s0,.01-.01,.02l-.03-.04s.03,.01,.04,.02Z"/>
      <path class="cls-1" d="M335.08,321.85c-.24,2.59-1.8,1.64-3.16,1.13-10.79-4.02-21.12-2.13-31.16,2.59-2.18,1.03-4.33,1.64-6.69,1.15-5.93-1.23-11.58-.35-17.2,1.07l-.49-1.9c-.14,.03-.3,.05-.45,.06v-.06c.17-.03,.35-.09,.49-.15,13.75-6.13,28.34-8.27,43.4-9.81-5.25-6.18-12.11-7.24-19.84-5.55,5.37-4.15,18.58-3.49,25.17,.95,2.27,1.54,3.82,4.23,6.9,4.52-.18,1.77,.06,3.33,2.02,3.96,.02,.84-.02,1.71,1.01,2.04Z"/>
      <path class="cls-1" d="M334.56,261.73c-.08,.05-.16,.11-.24,.18,.08-.08,.16-.14,.24-.18Z"/>
      <path d="M334.5,319.83v.02s-.07-.02-.1-.04c.03,.01,.07,.01,.1,.02Z"/>
      <path d="M333.83,316.97c.11,.95,.22,1.91,.34,2.86-.03,0-.07,0-.1-.02-1.96-.63-2.2-2.19-2.02-3.96l.19-.19c.53,.44,1.06,.87,1.59,1.31Z"/>
      <path class="cls-1" d="M333.53,262.98c.17,.09,.33,.17,.49,.22-.16-.05-.32-.12-.49-.22Z"/>
      <path class="cls-1" d="M334.31,261.92c-.3,.26-.56,.62-.82,1.02h-.01s.01,.02,.02,.02h0c.55,1.9-.63,2.05-2,2.01-.46,.98-1.12,1.37-1.93,1.31,.61-.11,1.13-.53,1.5-1.34h-.04s-.01-.02-.01-.03c.01,0,.01-.01,.01-.01h-.01s-.01-.01,0-.02c.13,0,.26-.01,.38-.03,.01,.01,.03,.02,.04,.03,0-.01-.01-.02-.01-.03,.89-.1,1.48-.5,1.14-1.83,.28-.05,.59-.06,.9-.08h.01c.26-.4,.53-.77,.83-1.02Z"/>
      <path class="cls-1" d="M333.5,262.94v.02s-.01-.01-.02-.01h.01s.01-.01,.01-.01Z"/>
      <path d="M333.02,14.9c-.01,.61-.01,1.21-.02,1.82-1.87-.98-3.79-1.97-6.33-3.29,.72-.18,1.38-.26,1.98-.27,1.77,.1,3.08,.87,4.37,1.74Z"/>
      <path d="M333,16.72v.25c-2.04-1.06-4.08-2.12-6.86-3.56,.94-.23,1.77-.3,2.51-.25-.6,.01-1.26,.09-1.98,.27,2.54,1.32,4.46,2.31,6.33,3.29Z"/>
      <path class="cls-1" d="M332.57,263.02c.34,1.33-.25,1.73-1.14,1.83-.36-1.34,.27-1.71,1.14-1.83Z"/>
      <path class="cls-1" d="M332.53,262.87c.01,.05,.03,.1,.04,.15-.87,.12-1.5,.49-1.14,1.83h-.03c-.37-.23-.7-.33-.99-.34-.31-1.55,.9-1.6,2.09-1.67h0s.01,.02,.02,.02h.01Zm-.03,.09h.01s-.01-.01-.01-.01h0Z"/>
      <polygon class="cls-1" points="332.51 262.94 332.5 262.95 332.5 262.94 332.51 262.94"/>
      <path class="cls-1" d="M332.24,315.66l-.19,.19c-3.08-.29-4.63-2.98-6.9-4.52-6.59-4.44-19.8-5.1-25.17-.95-2.58,.26-4.85,2.27-7.6,1.52,.04-.03,.08-.07,.12-.1-1.76-.57-3.46-.8-5.12-.79-5.3-.09-10.15,2.4-15.06,4.35-1.36,.55-2.55,1.49-4.03,1.56-.13-.01-.27-.03-.41-.05-.02,.02-.04,.03-.05,.05-.17-.01-.35-.04-.53-.08,1.28-1.22,2.56-2.44,3.84-3.65,1.3-.79,2.6-1.57,3.9-2.36,9.33-2.84,19.5-.53,28.65-4.76,3.54-1.64,7.56-.73,11.34-1.18,6.93,1.69,13.32,4.23,17.21,10.77Z"/>
      <path class="cls-1" d="M331.43,264.85s.01,.02,.01,.03c-.01-.01-.03-.02-.04-.03h.03Z"/>
      <path class="cls-1" d="M331.4,264.85c-.12,.02-.25,.03-.38,.03-.01-.01-.01-.02-.01-.03l.02-.02s-.06-.04-.08-.05c0,.01,0,.03,.01,.04-.19-.12-.37-.21-.54-.27-.01-.01-.01-.03-.01-.04,.29,0,.62,.11,.99,.34Z"/>
      <path class="cls-1" d="M331.03,264.94h.04c-.37,.81-.89,1.23-1.5,1.34-.31-.02-.65-.12-1.01-.27,.03,.08,.06,.15,.08,.23-.17-.05-.33-.1-.51-.17,0-.01,0-.02-.01-.03,.12-.05,.25-.08,.38-.1h0s-.02,.02-.02,.03l.05-.03h-.03c.53-.7,1.06-1.38,1.8-1.42l.12,.03c.01,.07,.03,.15,.05,.23,.02,.01,.05,.03,.08,.05,0,.01,0,.03-.02,.04,.17,0,.33,.01,.49,.01-.01,0,0,0,0,.02h0s-.05,.04-.05,.04h.04s.01-.02,.01-.03c0,.01,.01,.02,.01,.03Z"/>
      <path d="M331.03,264.9s0,.01-.01,.01h0s.01-.01,.01-.01Z"/>
      <path class="cls-1" d="M331.03,264.83l-.02,.02h-.01s-.03-.02-.04-.03-.01-.03-.01-.04c.02,.01,.05,.03,.08,.05Z"/>
      <path class="cls-1" d="M331.02,264.91s0,.02-.01,.03h-.04l.05-.03Z"/>
      <path class="cls-1" d="M331.01,264.85s0,.02,.01,.03c-.16,0-.32-.01-.49-.01,.01-.01,.01-.03,.02-.04-.03-.02-.06-.04-.08-.05-.02-.08-.04-.16-.05-.23,.17,.06,.35,.15,.54,.27,0,.02,0,.03,0,.05l.03-.02h.01Z"/>
      <path class="cls-1" d="M330.96,264.82s.03,.01,.04,.03l-.03,.02s0-.03,0-.05Z"/>
      <path class="cls-1" d="M330.42,264.55l-.12-.03s.07,0,.11,0c0,0,0,.03,.01,.04Z"/>
      <path class="cls-1" d="M328.04,265.83c.63-.82,1.27-1.58,2.26-1.31-.74,.04-1.27,.72-1.8,1.41h0c-.13,.03-.26,.06-.38,.11-.01-.04-.03-.09-.05-.13,0-.02-.02-.05-.03-.08Z"/>
      <path class="cls-1" d="M329.57,266.28c-.29,.06-.6,.04-.93-.04-.02-.08-.05-.15-.08-.23,.36,.15,.7,.25,1.01,.27Z"/>
      <path class="cls-1" d="M328.64,266.24c.58,1.67-1.42,1.68-2.02,2.6-.18,.02-.36,.02-.55,0,.52-1.03,2.74-.96,2.06-2.77,.18,.07,.34,.12,.51,.17Z"/>
      <path class="cls-1" d="M328.53,265.94l-.05,.03s.01,0,.02-.02h0s.02-.01,.03-.01Z"/>
      <path class="cls-1" d="M328.12,266.04s.01,.02,.01,.03c-.01-.01-.03-.01-.05-.02,.01-.01,.03-.01,.04-.01Z"/>
      <path class="cls-1" d="M328.07,265.91s.04,.09,.05,.13c-.01,0-.03,0-.04,.01-.02-.01-.05-.02-.07-.03,0-.02-.02-.05-.03-.08h-.03s.03-.04,.05-.06c.02,0,.05,.02,.07,.03Z"/>
      <path class="cls-1" d="M328.01,266.02s.05,.02,.07,.03c-.9,.34-1.68,1.27-2.74,.87,.97,.02,1.73-.96,2.67-1.08h0s-.02,.02-.02,.02h-.01l.02,.02s-.03,.04-.05,.06h.03s.03,.06,.03,.08Z"/>
      <path class="cls-1" d="M328.07,265.91s-.05-.02-.07-.03c0-.01,.01-.02,.01-.03l.03-.02s.03,.06,.03,.08Z"/>
      <path class="cls-1" d="M328.01,265.85s-.01,.02-.01,.03t-.02-.01h.01s.02-.02,.02-.02Z"/>
      <path class="cls-1" d="M335.36,213.51c-4.78,5.09-9.55,10.17-14.34,15.26,2.59-7.15,7.39-12.22,14.34-15.26Z"/>
      <path d="M325.79,387.34c2.8,2.84-.32,2.82-1.75,3.61-19.55,4.01-39.31,5.04-59.21,3.95,.19-2.05,2.24-2.57,3.24-3.96,1.5-.67,2.97-1.45,4.52-1.98,17.56-6.06,35.23-8.87,53.2-1.62Z"/>
      <path d="M326.06,268.84s-.01,.03-.02,.05l-.06-.05s.05,0,.08,0Z"/>
      <path d="M326.04,268.89c-.06,.13-.12,.27-.17,.41,.04-.15,.07-.31,.11-.46l.06,.05Z"/>
      <path d="M324.56,176.45s-.02,.05-.03,.07c-.16-.04-.32-.09-.49-.13-.02-2.37-1.61-3.75-3.52-4.23-6.8-1.71-9.3-6.55-9.25-12.87,.02-3.38-.77-4.37-3.9-4.72,3.57,.31,4.44,1.22,4.42,4.77-.05,6.33,2.45,11.17,9.25,12.88,1.91,.48,3.5,1.86,3.52,4.23Z"/>
      <path d="M322.98,72.02c-.16,0-.33,0-.51,.01-1.68,.08-3.25,.43-4.87,.89-4.65,1.34-8.18,4.46-11.61,7.54-1.49,1.33-2.63,1.78-3.54,1.58,.82-.03,1.8-.52,3.03-1.62,3.42-3.07,6.95-6.19,11.6-7.53,1.62-.46,3.19-.81,4.87-.89,.38-.02,.73-.02,1.03,.02Z"/>
      <path d="M321.02,228.77c-.12,.33-.24,.66-.35,1-.05,.05-.1,.11-.15,.16-.01,.02-.01,.05-.02,.07-.3-.01-.49,.1-.62,.26,.04-.1,.07-.22,.1-.33,.03,0,.06,0,.09,.01h0c.03-.09,.05-.16,.08-.24t.01-.02c.29-.3,.58-.61,.86-.91Z"/>
      <path class="cls-1" d="M320.59,256.53c-.48,.02-1.01-.09-1.52-.13,.48-.02,1.01,.09,1.52,.13Z"/>
      <path d="M320.15,229.7c-.03,.08-.05,.15-.08,.23l-.07-.07c.05-.05,.1-.11,.15-.16Z"/>
      <path d="M320.07,229.93h-.09s.01-.05,.02-.07l.07,.07Z"/>
      <path d="M319.08,230.87c.13-.48,.27-.96,.9-.94-.03,.11-.06,.23-.1,.33-.07,.09-.13,.2-.17,.32,0,.01-.01,.01-.01,.01-.13,.17-.33,.28-.62,.28Z"/>
      <path d="M319.88,230.26c-.04,.12-.1,.23-.17,.32,.04-.12,.1-.23,.17-.32Z"/>
      <path d="M319.08,230.94s-.01,.04-.02,.06l-.03-.03s.02-.02,.02-.03h.03Z"/>
      <path class="cls-1" d="M317.92,256.57c.33-.19,.73-.21,1.15-.17-.51,.01-.97,.19-1.24,.81,.03-.21,.05-.43,.09-.64Z"/>
      <path d="M319.06,230.93s0,.01-.01,.01h-.06l.04,.03s-.05,.08-.08,.12c.01-.07,.03-.15,.04-.22l.07,.06Z"/>
      <path d="M319.05,230.94s0,.02-.02,.03l-.04-.03h.06Z"/>
      <path d="M318.95,231.09c-.07,.37-.13,.74-.2,1.11-.14-.07-.27-.13-.41-.2,.2-.3,.41-.6,.61-.91Z"/>
      <path d="M317.51,283.56c-.13,.06-.25,.13-.37,.19,.04-.07,.07-.13,.12-.18,.04-.04,.16-.01,.25-.01Z"/>
      <path d="M317.14,283.75c-.03,.05-.06,.11-.09,.17l-.07-.08c.05-.03,.11-.06,.16-.09Z"/>
      <path d="M316.98,283.96c0,.13-.01,.26-.02,.38-9.24,5-17.37,11.31-23.51,19.99-.9,1.27-1.61,2.86-3.44,2.32,1.46,.14,2.12-1.27,2.93-2.41,6.26-8.84,14.59-15.23,24.04-20.28Z"/>
      <path d="M316.5,283.84l.07,.08s-.05,.03-.07,.04v-.12Z"/>
      <path d="M299.98,310.38c7.73-1.69,14.59-.63,19.84,5.55-15.06,1.54-29.65,3.68-43.4,9.81-.14,.06-.32,.12-.5,.15-.09,.02-.18,.03-.28,.05h-.04c-.2-.02-.38-.07-.52-.17-1.02-.75-.46-1.78-.08-2.69,2.24-5.34,6.37-8.35,11.94-9.44,1.9-.37,3.85-.47,5.44-1.74,2.75,.75,5.02-1.26,7.6-1.52Z"/>
      <path d="M294.5,85.13c7.14,15.59,7.69,32.08,7.21,48.75-.12,4.25-2.76,6.57-6.58,6.07,3.54,.24,5.95-2.06,6.07-6.12,.48-16.66-.07-33.15-7.21-48.74-2.3-5-.48-9.55,3.69-14.11,0,.2,.01,.39,.01,.59-3.81,4.37-5.4,8.76-3.19,13.56Z"/>
      <path d="M284.85,136.31c4.07,10.13,11.9,17.04,21.34,18.15-9.72-.92-17.79-7.97-21.91-18.38,.19,.08,.38,.15,.57,.23Z"/>
      <path class="cls-1" d="M292.5,311.8s-.08,.07-.12,.1c-.11-.03-.23-.06-.34-.1-1.6-.52-3.15-.76-4.66-.79,1.66-.01,3.36,.22,5.12,.79Z"/>
      <path d="M292.04,311.8c.11,.04,.23,.07,.34,.1-1.59,1.27-3.54,1.37-5.44,1.74-5.57,1.09-9.7,4.1-11.94,9.44-.38,.91-.94,1.94,.08,2.69,.14,.1,.32,.15,.52,.17-.38,.04-.75-.01-.98-.17-1.02-.75-.46-1.78-.08-2.69,2.24-5.34,6.37-8.35,11.94-9.44,1.95-.38,3.95-.48,5.56-1.84Z"/>
      <path class="cls-1" d="M289.16,342.79c2.68,2.76,2.27,5.95,.32,9.11-4.44,7.23-10.45,9.48-18.65,6.98-1.68-.51-3.01-1.2-3.58-3.26,1.72,.09,3.3,.27,4.87,.21,4.38-.15,6.46-2.57,5.4-6.81-.91-3.61-.79-6.76,2.72-8.6,3.45-1.82,6.55-.08,8.92,2.37Z"/>
      <path class="cls-1" d="M292.04,311.8c-1.61,1.36-3.61,1.46-5.56,1.84-5.57,1.09-9.7,4.1-11.94,9.44-.38,.91-.94,1.94,.08,2.69,.23,.16,.6,.21,.98,.17h.04c.1,.01,.19,.01,.29,.01l.51,1.95c-1.7,.43-3.39,.92-5.09,1.4-4.46,1.27-7.24,5.24-11.55,6.56-.37-1.31-.47-2.61,.13-3.9,2.88-1.18,1.86-3.99,2.57-6.09h0c1.9-2.26,4.46-4.17,3.97-7.67,.59-.55,.79-.75,1.36-1.28,.16,.01,.31,.01,.46,0,1.7,.13,2.99-.96,4.49-1.56,4.77-1.9,9.48-4.3,14.6-4.35,1.51,.03,3.06,.27,4.66,.79Z"/>
      <path class="cls-1" d="M249.09,44.63c18.58,5.44,38.44,24.63,35.48,47.89-4.09-3.13-5.19-8.18-8.48-11.56-.67-.68-1.01-1.94-2.21-1.51s-.94,1.76-.73,2.6c1.01,3.97-.43,7.89-.13,11.83,.1,1.29,.31,2.98-1.31,3.37-1.24,.29-1.93-1.08-2.55-2.06-1.59-2.53-3.6-4.58-6.95-6.65,3.12,12.27,2.24,23.59-.84,36.26-2.85-7.56-5.8-13.7-10.35-18.83-3.34-3.78-6.69-7.67-11.87-9.12-.16-.44-.32-.88-.47-1.32-.13,.09-.37,.25-.37,.28,.21,.4,.46,.77,.7,1.16,.24,4.63-.35,9.11-2.58,14.3-3.49-8.22-7.44-15.21-12.08-21.82-.75-1.07-1.27-2.92-2.58-2.69-1.55,.28-1.47,2.22-1.79,3.65-.64,2.89-1.49,5.74-2.41,9.2-4.68-12.49-5.45-23.97,2.33-35.22,3.46-5.01,1.64-10.76-.18-16.06-.68-1.98-1.64-3.93-3.67-5.38,7.57-1.72,17.36,3.34,20.66,10.37,1.82-2.97,1.94-6.33,2.72-9.84,4.52,1.91,5.7,6.67,8.86,9.93,2.33-2.75,1.59-5.74,.8-8.78Z"/>
      <path d="M276.87,327.79l.03,.11c-1.7,.43-3.39,.92-5.09,1.4-4.6,1.31-7.42,5.5-11.97,6.69-.01-.04-.02-.09-.04-.13,4.31-1.32,7.09-5.29,11.55-6.56,1.7-.48,3.39-.97,5.09-1.4,.14-.04,.29-.07,.43-.11Z"/>
      <path class="cls-1" d="M276.38,325.89l.49,1.9c-.14,.04-.29,.07-.43,.11l-.51-1.95c.15-.01,.31-.03,.45-.06Z"/>
      <path d="M275.04,310.83c-1.3,.79-2.6,1.57-3.9,2.36-4.26-1.78-18.57,3.31-22.83,8.45,5.24-1.3,10.13-.68,15.01-.7-.61,1.48-1.21,2.96-1.82,4.44-.38,.55-.75,1.1-1.13,1.65-1.75-.04-3.04,.57-4.21,2.04-11.01,13.86-5.48,26.85,2.21,35.47,6.82,7.65,11.18,15.86,9.7,26.4-1,1.39-3.05,1.91-3.24,3.96-8.9,6.73-19.22,9.18-30.08,9.97-3.21,.24-5.22,1.21-6.31,4.85-3.61,12.05-11.32,20.76-23.63,24.11-9.39,2.56-19.08,4.27-28.97,2.47-1.94-.35-3.96-.38-5.94-.43-5.11-.13-6.23-1.43-3.56-5.89,3.44-5.75,4.83-11.92,5.54-18.33,1.26-11.28-4.12-19.51-12.88-25.72-3.61-2.56-6.91-4.01-4.21-9.73,2.03-4.29-1.5-7.76-7.19-8.28-2.15-.2-4.33-.04-6.5-.05h-.01c.5-4.54,4.64-6.7,6.95-9.98,5.6-7.96,9.72-16.95,16.83-23.94,3.3-3.25,6.15-7.05,10.14-9.44,6.02-3.59,10.21-9.24,15.88-13.25,7.09-5,15.18-6.67,23.34-7.25,20.33-1.44,40.35,1.24,60.08,6.18,.28,.07,.48,.42,.73,.64Zm-34.55,75.32c5.9-7.55,4.66-16.35,4.32-24.91-.08-1.94-1.44-4.09-4.1-4.35-6.42-.65-12.81-1.61-19.25-1.94-12.97-.67-24.52,2.76-33.62,12.63-2.68,2.92-6.58,4.68-8.86,9.22,11.58-3.67,22.34-7.34,34.1-7.37-6.09,.97-9.39,5.68-13.56,9.17-.83,.71-2.51,1.03-1.83,2.49,.61,1.31,2.01,.66,3.11,.38,6.74-1.69,13.52-3.26,20.21-5.14,3.7-1.03,5.17-.26,5.14,3.83-.06,6.08-3,10.99-6.6,16.93,8.74-2.05,15.85-4.44,20.94-10.94Z"/>
      <path d="M274.65,280.52c.05,.07-.07,.25-.11,.39-.13-.3-.26-.6-.4-.89,.18,.15,.36,.31,.51,.5Z"/>
      <path d="M274.07,279.85c.03,.06,.05,.11,.07,.17-.04-.05-.08-.08-.12-.12l.05-.05Z"/>
      <path d="M274.07,279.85l-.05,.05s-.03-.09-.05-.13c.03,.03,.07,.05,.1,.08Z"/>
      <path d="M271.14,313.19c-1.28,1.21-2.56,2.43-3.84,3.65-.43,.46-.86,.91-1.29,1.37-.9,.91-1.8,1.82-2.69,2.73-4.88,.02-9.77-.6-15.01,.7,4.26-5.14,18.57-10.23,22.83-8.45Z"/>
      <path d="M278.28,302.57c-4.34-.73-8.81-.77-13.31-.51-.77,.04-1.46,0-2.09-.14,.5,.06,1.03,.08,1.6,.05,4.67-.27,9.31-.22,13.8,.6Z"/>
      <path class="cls-1" d="M273.97,279.77c-3.34-2.6-5.81-6.25-9.61-8.24-1.65-.86-3.03-3.16-5.44-1.6-.35,.04-.7,.09-1.05,.13l-.13,.06c.49-4.78-3.91-6.36-6.2-9.29-1.47-1.89-3.88-3.02-4.62-5.56,12.93,3.86,22.25,11.69,27.05,24.5Z"/>
      <path class="cls-1" d="M268.29,316.92c-.15,.01-.3,.01-.46,0,.01-.02,.03-.03,.05-.05,.14,.02,.28,.04,.41,.05Z"/>
      <path d="M267.55,287.12c.11,.12,.22,.25,.32,.37-.11,.3-.22,.59-.33,.88-.1-.13-.3-.28-.28-.38,.04-.3,.19-.58,.29-.87Z"/>
      <path d="M264.14,278.77c1.48,1.93,2.51,4.05,3.19,7.75-2.48-2.52-3.29-4.62-4.13-6.71,.31-.34,.62-.69,.94-1.04Z"/>
      <path d="M266.01,318.21c.49,3.49-2.07,5.4-3.97,7.65-.03-.03-.06-.06-.09-.08-.14-.14-.29-.28-.45-.4,.61-1.48,1.21-2.96,1.82-4.44,.89-.91,1.79-1.82,2.69-2.73Z"/>
      <path class="cls-1" d="M258.92,269.93c1.74,2.94,3.48,5.89,5.22,8.84-.32,.35-.63,.7-.94,1.04-1.67-3.3-4.58-5.93-5.33-9.75,.35-.04,.7-.09,1.05-.13Z"/>
      <path class="cls-1" d="M263.35,351.32c-.21,.28-.42,.55-.63,.83-.08-.23-.19-.46-.23-.71-.02-.11,.08-.25,.12-.37,.25,.08,.5,.16,.74,.25Z"/>
      <path class="cls-1" d="M261.48,348.9c1.02,.32,1.57,.98,1.49,2.08l-.21-.12-.08,.11c-1.12-.17-.83-1.36-1.2-2.07Z"/>
      <path class="cls-1" d="M262.97,350.98c-.11,0-.2-.01-.29-.01l.08-.11,.21,.12Z"/>
      <polygon points="262.5 325.86 262.5 325.87 262.49 325.86 262.5 325.86"/>
      <path d="M261.95,325.78l.09,.09c-.71,2.1,.31,4.91-2.57,6.09,.3-1.64,.6-3.29,.9-4.93,.38-.55,.75-1.1,1.13-1.65,.16,.12,.31,.26,.45,.4Z"/>
      <path class="cls-1" d="M230.21,227.84c16.03-2.8,31.89,8.39,31.54,22.27-9.89-12.05-21.6-13.06-34.51-7.28,4.56-5.25,10.38-7.95,17.68-8.09-3-5.94-8.7-5.69-14.71-6.9Z"/>
      <path class="cls-1" d="M225.02,243.94h-.01l.02,.03h.01s-.01-.02-.02-.03Zm0-.01h.02c3.52,1.81,7.04,3.64,10.56,5.47,3.77,1.96,7.54,3.91,11.32,5.87,.74,2.54,3.15,3.67,4.62,5.56,2.29,2.93,6.69,4.51,6.2,9.29-2.52-.71-3.36-3.49-5.62-4.52-.36-2.24-2.2-3.34-3.68-4.7-15.06-12.3-32.15-18.18-51.79-16.08,9.46-3.35,18.91-2.06,28.37-.89Z"/>
      <path d="M254.8,279.02c-.09,.05-.18,.1-.27,.13-13.01-11.92-38.59-12.31-58.47-3.16-1.43,.65-2.83,1.36-4.2,2.13h-.01c-.17,.09-.33,.19-.49,.28-1.65,.93-3.24,1.94-4.77,3.02h-.01c-.17,.13-.35,.25-.52,.38-.65,.47-1.3,.95-1.92,1.46-.8,.63-1.58,1.29-2.33,1.97-.69,.63-1.35,1.27-1.99,1.93-.01-.02-.03-.04-.05-.06-.04-.06-.08-.11-.12-.16,.7-.74,1.41-1.42,2.16-2.09,.75-.68,1.53-1.34,2.33-1.97,.79-.64,1.61-1.25,2.44-1.84h.01c1.68-1.19,3.44-2.29,5.26-3.3h.01c1.37-.77,2.77-1.48,4.2-2.13,20.02-9.21,45.81-8.75,58.74,3.41Z"/>
      <path class="cls-1" d="M254.53,279.15c.09,.08,.18,.17,.27,.25-1.62,.95-2.83-.4-3.91-.91-23.81-11.36-45.97-7.63-67.01,7.06-1.22,.85-2.5,1.6-3.75,2.39-.04-.06-.08-.11-.13-.16,.05-.07,.09-.15,.13-.22,1.25-.79,2.53-1.54,3.75-2.39,21.04-14.69,43.2-18.42,67.01-7.06,1.02,.48,2.15,1.71,3.64,1.04Z"/>
      <path class="cls-1" d="M254.53,279.15c-1.49,.67-2.62-.56-3.64-1.04-23.81-11.36-45.97-7.63-67.01,7.06-1.22,.85-2.5,1.6-3.75,2.39h0c-.1-.14-.2-.27-.31-.4,.64-.66,1.3-1.3,1.99-1.93,.75-.68,1.53-1.34,2.33-1.97,.62-.5,1.27-.98,1.92-1.46,.17-.13,.35-.25,.52-.38h.01c1.53-1.07,3.12-2.08,4.77-3.02,.16-.09,.32-.19,.49-.28h.01c1.37-.76,2.77-1.47,4.2-2.13,19.88-9.15,45.46-8.76,58.47,3.16Z"/>
      <path class="cls-1" d="M248.44,260.9c1.48,1.36,3.32,2.46,3.68,4.7-7.26-.57-14.52-1.04-23.08,.72,5.36-3.39,9.8-4.66,14.74-4.41,1.57,.09,3.37,.5,4.66-1.01Z"/>
      <path class="cls-1" d="M244.81,361.24c.34,8.56,1.58,17.36-4.32,24.91-5.09,6.5-12.2,8.89-20.94,10.94,3.6-5.94,6.54-10.85,6.6-16.93,.03-4.09-1.44-4.86-5.14-3.83-6.69,1.88-13.47,3.45-20.21,5.14-1.1,.28-2.5,.93-3.11-.38-.68-1.46,1-1.78,1.83-2.49,4.17-3.49,7.47-8.2,13.56-9.17-11.76,.03-22.52,3.7-34.1,7.37,2.28-4.54,6.18-6.3,8.86-9.22,9.1-9.87,20.65-13.3,33.62-12.63,6.44,.33,12.83,1.29,19.25,1.94,2.66,.26,4.02,2.41,4.1,4.35Z"/>
      <path d="M238.68,95.53c.15,.44,.31,.88,.47,1.32l-.14,.12c-.24-.39-.49-.76-.7-1.16,0-.03,.24-.19,.37-.28Z"/>
      <path d="M227.24,242.83s-.06,.07-.11,.11h-.01l-.03-.04c.05-.02,.1-.05,.15-.07Z"/>
      <polygon points="227.13 242.94 227.13 242.95 227.12 242.94 227.13 242.94"/>
      <polygon points="227.09 242.9 227.12 242.94 227.08 242.9 227.09 242.9"/>
      <path d="M227.12,242.94h-.13s.06-.02,.09-.04l.04,.04Z"/>
      <path d="M227.08,242.89h0s-.06,.04-.09,.05h-.02s.07-.03,.11-.05Z"/>
      <path class="cls-1" d="M226.99,242.94s0,.01-.02,.01h-.02s.01-.01,.02-.01h.02Z"/>
      <path d="M226.97,242.95c-.62,.3-1.25,.6-1.87,.9,.61-.3,1.24-.59,1.85-.9h.02Z"/>
      <path class="cls-1" d="M226.95,242.95c-.61,.31-1.24,.6-1.85,.9,.47-.59,1.09-.88,1.85-.9Z"/>
      <path d="M228.55,280.37c-3.4-.54-6.93-.32-10.7,1.31,1.41,1.2,2.76,1.98,3.55,3.14,.78,1.13,2.68,2.12,1.73,3.77-.65,1.13-2.24,1.28-3.61,1.36-11.69,.71-22.89,3.7-33.77,7.84-8.99,3.41-17.23,8.14-24.02,15.77,.09,.02,.18,.05,.26,.06-.23-.03-.46-.09-.69-.15,6.79-7.63,15.02-12.36,24.01-15.77,10.87-4.13,22.06-7.12,33.75-7.83,1.37-.08,2.95-.23,3.6-1.36,.95-1.65-.95-2.64-1.72-3.77-.79-1.16-2.14-1.94-3.55-3.14,3.93-1.7,7.62-1.86,11.16-1.23Z"/>
      <path d="M221.85,205.25c1.17,3.54,4.01,6.56,3.43,10.65-.12,.9,.41,2.34-.86,2.46-.24,.02-.45,0-.62-.06,.06,0,.12,0,.18-.01,1.27-.12,.74-1.56,.86-2.46,.58-4.09-2.26-7.11-3.43-10.65-1.8-5.48-5.59-9.14-11.42-10.36-.38-2.39,.4-4.62,.92-6.88,.58-2.55,1.84-3.7,3.41-3.29-1.37-.1-2.44,1.05-2.97,3.36-.52,2.26-1.3,4.49-.92,6.88,5.83,1.22,9.62,4.88,11.42,10.36Z"/>
      <path d="M223.99,123.69c2.17,2.25,2.24,5.85,1.01,8.56-5.17,11.38-3.32,23-1.93,34.69,.63,5.26,.98,10.56,1.24,15.86,.09,1.77-.29,3.97-2,4.77-.83,.39-1.65,.48-2.47,.3,.67,.07,1.35-.05,2.03-.37,1.71-.8,2.09-3,2-4.77-.26-5.3-.61-10.6-1.24-15.86-1.39-11.69-3.24-23.31,1.93-34.69,1.23-2.71,1.16-6.31-1.01-8.56-5.5-5.69-9.74-12.33-14.6-18.74,.04-.12,.09-.23,.14-.33,4.98,6.53,9.29,13.33,14.9,19.14Z"/>
      <path d="M225.09,243.86s-.03,.03-.04,.05c-.01,0-.02-.01-.03-.01,0-.01,.03-.02,.04-.03,.01,0,.02-.01,.03-.01Z"/>
      <path d="M225.06,243.87s-.03,.02-.04,.03c0-.01-.01,0-.01,0h0s.03-.02,.05-.03Z"/>
      <path d="M225.05,243.91s-.01,.01-.01,.01l-.02-.02s.02,.01,.03,.01Z"/>
      <path d="M225.04,243.92h-.01s0,0,0,0c0-.02-.01-.03-.01-.03,0,0,.01-.01,.01,0l.02,.02Z"/>
      <path d="M225.04,243.96h-.01s-.02-.02-.02-.02h.01l.02,.02Z"/>
      <path d="M221.41,205.18c1.17,3.54,4.01,6.56,3.43,10.65-.12,.9,.41,2.34-.86,2.46-.06,.01-.12,.01-.18,.01-.85-.3-1.01-1.5-1.25-2.42-.1,.19-.19,.38-.28,.58-.05-.22-.11-.44-.16-.65-.63-3.97-3.68-6.26-6.39-8.61-6.35-5.54-16.77-4.14-22.67,2.83-4.6,5.43-4.3,14.32,.64,18.98,6.47,6.11,18.04,6.68,23.38,1.16,.34-.19,.66-.4,.88-.64,.37-.39,.51-.88,.19-1.58,.13,.01,.26,.01,.37,.01h.01c2.05,.15,2.26-.94,2.13-2.27,2.31,3.54-.77,6.38-2.33,8.91-2.42,3.92-6.32,4.82-10.31,4.22-.72-.13-1.45-.31-2.17-.52-9.04-2.68-17.94-5.84-26.88-8.84-.72-.24-1.43-.45-2.19-.55-.06-.01-.11-.02-.17-.02-1.01-.18-2.07-.18-3.32,.18,2.69,4.63,5.29,9.11,7.88,13.58-4.29-2.48-8.63-3.93-13.01-4.6-6.06-.99-12.22-.46-18.46,.98-.6,.14-1.06,.19-1.42,.16-1.06-.33-.51-1.68-.23-2.75,1.55-5.72,4.83-10.49,8.69-14.88,3.29-3.73,6.58-7.49,10.1-11,1.84-1.84,1.53-3.03-.34-4.3-2.77-1.88-5.73-3.19-9.1-3.72-.09-.01-.17-.03-.25-.04-2.06-.4-2.9-1.47-.85-3.57,4.75-4.86,10.4-7.78,17.18-7.91,5.29-.09,10.58,.36,15.87,.58,3.33,2.83,6.99,5.08,11.05,6.74,4.37,1.78,7.63,1.01,9.6-3.52,5.83,1.22,9.62,4.88,11.42,10.36Z"/>
      <path class="cls-1" d="M223.55,123.62c2.17,2.25,2.24,5.85,1.01,8.56-5.17,11.38-3.32,23-1.93,34.69,.63,5.26,.98,10.56,1.24,15.86,.09,1.77-.29,3.97-2,4.77-.68,.32-1.36,.44-2.03,.37-.97-.2-1.92-.79-2.85-1.71-.96-.96-1.87-1.46-2.67-1.51-1.57-.41-2.83,.74-3.41,3.29-.52,2.26-1.3,4.49-.92,6.88-1.97,4.53-5.23,5.3-9.6,3.52-4.06-1.66-7.72-3.91-11.05-6.74,.12,.01,.25,.02,.37,.02-1.24-3.21-3.75-4.14-6.43-4.53-.12-.02-.25-.04-.38-.06-1.02-.15-2.07-.22-3.07-.31-6.49-.54-12.94,.13-19.17,2.23-1.03,.35-2,.84-3.07,.76-.02-.01-.04-.01-.06-.01-.08-.02-.17-.05-.25-.08,1.11-5.28,1.62-5.75,19.6-18.02-.45-.18-.95-.31-1.5-.37-4.41-.86-12.15,2.1-17.89,4.81-6.45,3.05-12.66,6.55-18.56,10.6-1.3,.89-2.57,2.09-4.29,2.22,4.19-8.23,11.31-13.39,18.86-18.18,8.22-5.22,17.37-7.89,27.78-10.26-5.57-4.46-11.46-5.39-17.25-6.61-.53-.11-1.06-.21-1.59-.3-.27-.04-.54-.09-.81-.13-11.33-1.83-22.09,1.11-32.82,4.31,4.25-6.91,11.34-8.49,18.62-9.57,6.57-.98,13-.64,19.37,.3,.49,.07,.98,.15,1.47,.23,5.51,.92,10.98,2.24,16.46,3.51,.84,.2,1.85,.86,2.7,.91,.69,.18,1.32,.1,1.74-.72,.72-1.38-.38-3.29-1.38-4.54-4.3-5.39-9.61-9.57-15.72-12.79-8.52-4.5-17.38-8.19-26.91-11.44,4.84-2.87,9.65-2.84,14.38-2.13,.06,0,.12,.01,.18,.02,.33,.05,.65,.11,.97,.16,1.64,.29,3.27,.63,4.88,.93,8.99,1.64,17.57,4.81,25.89,8.62,1.28,.58,2.54,1.29,4.17,1.49,.54,.11,1.13,.16,1.77,.12-3.57-7.82-9.8-12.61-16.55-16.77-5.85-3.6-9.64-8.72-12.22-14.89,2.18,.61,4.36,1.25,6.55,1.77,.29,.07,.6,.15,.91,.18h.02c.82,.16,1.7,.17,2.2-.69,.51-.87-.29-1.51-.8-2.15-3.98-5.05-5.89-10.89-6.66-17.66,2.28,1.25,2.87,3.62,4.31,5.17,8.46,9.18,18.9,15.67,29.76,21.41,.69,.36,1.22,.54,1.63,.56,2.52,.66,1.66-2.86,2.4-4.84,4.86,6.41,9.1,13.05,14.6,18.74Zm-13.53,24.62c9.87-18.7,1.01-30.34-18.93-34.68,9.41,9.8,15.62,20.9,18.93,34.68Z"/>
      <path d="M222.55,215.88c.24,.92,.4,2.12,1.25,2.42-1,0-1.31-.92-1.53-1.84,.09-.2,.18-.39,.28-.58Z"/>
      <path class="cls-1" d="M222.11,215.81c.05,.21,.11,.43,.16,.65-1.24,2.67-1.7,5.51-1.74,8.44,0,.01-.02,.01-.03,.02v-.02c-.1,.06-.2,.12-.29,.19h-.01s-.04-.05-.06-.08c-.01-.04-.01-.07-.02-.11l-.02,.03h-.01c.03-3.19,.55-6.26,2.02-9.12Z"/>
      <path d="M220.58,225.08c3.21,3.86-.16,6.9-1.82,9.59-2.51,4.07-6.61,4.88-10.75,4.15,3.99,.6,7.89-.3,10.31-4.22,1.56-2.53,4.64-5.37,2.33-8.91-.03-.23-.06-.46-.1-.7h-.01l.02-.02s.01,.07,.02,.11Z"/>
      <path d="M222.11,215.81c-1.47,2.86-1.99,5.93-2.02,9.11-1.18,.65-1.42,1.93-1.99,2.98h-.01s-.08,.05-.12,.07c-.42,.21-.64,.53-.76,.89-.12,.4-.13,.85-.14,1.3h0c-5.34,5.53-16.91,4.96-23.38-1.15-4.94-4.66-5.24-13.55-.64-18.98,5.9-6.97,16.32-8.37,22.67-2.83,2.71,2.35,5.76,4.64,6.39,8.61Zm-8.46,5.55c1.7-4.41-1.44-9.11-5.78-9.18-2.4-3.21-4.93-3.41-7.61-.33-3.77,2.31-5.04,5.43-3.45,9.72,1.57,4.25,4.46,6.39,9,6.35,4.41-.05,6.5-3.09,7.84-6.56Z"/>
      <path d="M220.65,225.69c.13,1.33-.08,2.42-2.13,2.28h-.01c1.93-.03,1.87-1.38,1.65-2.84,.01-.02,.02-.03,.04-.04h.01c.16,.2,.31,.4,.44,.6Z"/>
      <path class="cls-1" d="M220.55,224.99c.04,.24,.07,.47,.1,.7-.13-.2-.28-.4-.44-.6,.09-.07,.19-.13,.29-.19v.02h0v.03h.01s.01,0,.02,.01h0v.03h.01s.01,0,.01,0Z"/>
      <path class="cls-1" d="M220.53,224.97s.01,.01,.01,.01h-.01Z"/>
      <path class="cls-1" d="M220.53,224.91v.05l-.02-.02,.02-.03Z"/>
      <path class="cls-1" d="M220.53,224.9h0s-.02,.04-.02,.04h-.01v-.02s.02-.01,.03-.02Z"/>
      <path d="M220.2,225.09s-.03,.02-.04,.04c0-.04,0-.08-.02-.12,.02,.03,.04,.05,.06,.08Z"/>
      <path class="cls-1" d="M220.16,225.13c.22,1.46,.28,2.81-1.65,2.83,.01-.01,0-.02-.01-.03h0v-.02h0c.51-.95,.76-2.09,1.66-2.78Z"/>
      <path class="cls-1" d="M220.12,224.9s.01,.07,.02,.11c-.02-.02-.03-.04-.05-.06v-.02s.03-.03,.03-.03Z"/>
      <path class="cls-1" d="M218.5,227.9h0v.02h-.01v-.02h.01Z"/>
      <path d="M218.48,227.91s0,0,0-.01v.02h0Z"/>
      <path class="cls-1" d="M218.49,227.92s0,0,0,0h0s0,0,0,0Z"/>
      <path class="cls-1" d="M218.48,227.92h0s-.01,.02-.01,.02t.01-.02Z"/>
      <path class="cls-1" d="M218.14,227.95c.32,.7,.18,1.19-.19,1.58-.23,.24-.55,.44-.88,.63,0-.45,.02-.9,.14-1.3,.12-.35,.35-.66,.76-.89l.12-.06s0,.02-.01,.03h.06Z"/>
      <path class="cls-1" d="M218.12,227.91s.02,.02,.02,.03h-.05l.03-.03Z"/>
      <polygon class="cls-1" points="218.1 227.9 218.1 227.91 218.09 227.91 218.1 227.9"/>
      <path class="cls-1" d="M216.99,186.16c.93,.92,1.88,1.51,2.85,1.71-1.12-.1-2.22-.72-3.29-1.78-.78-.78-1.54-1.26-2.23-1.44,.8,.05,1.71,.55,2.67,1.51Z"/>
      <path d="M217.21,228.86c.12-.36,.34-.68,.76-.89-.41,.23-.64,.54-.76,.89Z"/>
      <path d="M207.87,212.18c4.34,.07,7.48,4.77,5.78,9.18-1.34,3.47-3.43,6.51-7.84,6.56-4.54,.04-7.43-2.1-9-6.35-1.59-4.29-.32-7.41,3.45-9.72-.19,2.71,.46,4.96,3.65,5.14,3.3,.17,4-2.08,3.96-4.81Z"/>
      <path d="M191.09,113.56c19.94,4.34,28.8,15.98,18.93,34.68-3.31-13.78-9.52-24.88-18.93-34.68Z"/>
      <path class="cls-1" d="M208.65,104.48c.1,.13,.2,.27,.3,.4-.74,1.98,.12,5.5-2.4,4.84,2.1,.15,1.16-3.46,2.1-5.24Z"/>
      <path d="M207.87,212.18c.04,2.73-.66,4.98-3.96,4.81-3.19-.18-3.84-2.43-3.65-5.14,2.68-3.08,5.21-2.88,7.61,.33Z"/>
      <path d="M205.84,238.3c.72,.21,1.45,.39,2.17,.52-.87-.13-1.75-.33-2.61-.59-9.04-2.68-17.94-5.84-26.88-8.84-.58-.19-1.16-.36-1.75-.48,.76,.1,1.47,.31,2.19,.55,8.94,3,17.84,6.16,26.88,8.84Z"/>
      <path d="M205.36,109.23c.47,.25,.86,.4,1.19,.49-.41-.02-.94-.2-1.63-.56-10.86-5.74-21.3-12.23-29.76-21.41-1.44-1.55-2.03-3.92-4.31-5.17-.01-.05-.01-.11-.02-.16,2.67,1.17,3.24,3.75,4.77,5.4,8.46,9.18,18.9,15.67,29.76,21.41Z"/>
      <path class="cls-1" d="M197.4,132.79c-.64,.04-1.23-.01-1.77-.12,.42,.06,.86,.08,1.33,.05-3.57-7.82-9.8-12.61-16.55-16.77-5.87-3.61-9.66-8.75-12.25-14.95,.16,.04,.31,.09,.47,.13,2.58,6.17,6.37,11.29,12.22,14.89,6.75,4.16,12.98,8.95,16.55,16.77Z"/>
      <path d="M196.06,275.99c-1.43,.66-2.83,1.37-4.2,2.13,1.37-.77,2.77-1.48,4.2-2.13Z"/>
      <path d="M191.9,131.25c1.16,.53,2.3,1.16,3.73,1.42-1.63-.2-2.89-.91-4.17-1.49-8.32-3.81-16.9-6.98-25.89-8.62-1.61-.3-3.24-.64-4.88-.93,1.79,.3,3.56,.68,5.32,1,8.99,1.64,17.57,4.81,25.89,8.62Z"/>
      <path class="cls-1" d="M189.71,191.62c-.12,0-.25-.01-.37-.02-.02,0-.05-.03-.07-.05-1.17-3.03-3.48-4.03-5.99-4.46,2.68,.39,5.19,1.32,6.43,4.53Z"/>
      <path d="M189.27,191.55s.05,.04,.07,.05c-5.29-.22-10.58-.67-15.87-.58-6.78,.13-12.43,3.05-17.18,7.91-2.05,2.1-1.21,3.17,.85,3.57-.06-.01-.13-.02-.19-.03-2.24-.36-3.23-1.43-1.1-3.61,4.75-4.86,10.4-7.78,17.18-7.91,5.41-.09,10.83,.38,16.24,.6Z"/>
      <path class="cls-1" d="M187.79,147.81c1,1.25,2.1,3.16,1.38,4.54-.42,.82-1.05,.9-1.74,.72,.51,.04,.97-.15,1.3-.79,.72-1.38-.38-3.29-1.38-4.54-4.3-5.39-9.61-9.57-15.72-12.79-8.52-4.5-17.38-8.19-26.91-11.44,4.99-2.96,9.95-2.83,14.82-2.06-4.73-.71-9.54-.74-14.38,2.13,9.53,3.25,18.39,6.94,26.91,11.44,6.11,3.22,11.42,7.4,15.72,12.79Z"/>
      <path d="M186.59,281.42c1.53-1.08,3.12-2.09,4.77-3.02-1.65,.94-3.24,1.95-4.77,3.02Z"/>
      <path d="M185.17,152.23c.7,.17,1.52,.65,2.26,.84-.85-.05-1.86-.71-2.7-.91-5.48-1.27-10.95-2.59-16.46-3.51,5.66,.92,11.28,2.27,16.9,3.58Z"/>
      <path d="M184.14,283.26c.62-.51,1.27-.99,1.92-1.46-.65,.48-1.3,.96-1.92,1.46Z"/>
      <path d="M181.76,242.99c-.2-.12-.4-.24-.6-.34-2.59-4.47-5.19-8.95-7.88-13.58,1.25-.36,2.31-.36,3.32-.18-.88-.11-1.81-.06-2.88,.25,2.74,4.72,5.39,9.29,8.04,13.85Z"/>
      <path d="M181.16,242.65c.06,.09,.11,.18,.16,.27-4.35-2.6-8.73-4.14-13.17-4.87,4.38,.67,8.72,2.12,13.01,4.6Z"/>
      <path d="M182.9,187.03c-.88-.11-1.77-.17-2.63-.24-6.49-.54-12.94,.13-19.17,2.23-1.16,.4-2.26,.97-3.51,.69,1.07,.08,2.04-.41,3.07-.76,6.23-2.1,12.68-2.77,19.17-2.23,1,.09,2.05,.16,3.07,.31Z"/>
      <path d="M179.5,286.93c.7-.73,1.42-1.42,2.17-2.09-.75,.69-1.47,1.38-2.16,2.1h-.01Z"/>
      <path class="cls-1" d="M180.13,287.55h0c-.04,.08-.08,.16-.13,.23-.11-.15-.22-.29-.34-.43t0-.02c.06-.06,.11-.12,.17-.17,.11,.13,.21,.26,.31,.39Z"/>
      <path d="M180,287.78c.05,.05,.09,.1,.13,.16-.54,.94-1.09,1.87-2.53,1.57,.02-.13,.04-.25,.08-.37,1.27,.23,1.83-.52,2.32-1.36Z"/>
      <path d="M179.66,287.35c.12,.14,.23,.28,.34,.43-.49,.84-1.05,1.59-2.32,1.36,.21-.71,.76-1.07,1.32-1.41,.22-.13,.44-.25,.64-.4l.02,.02Z"/>
      <path d="M179.82,287.16c-.06,.05-.11,.11-.17,.17t0,.02l-.02-.02h-.01c-.2,.14-.41,.27-.63,.4-.56,.34-1.11,.7-1.32,1.41-.02,0-.05,0-.08,0,.11-.96,.75-1.39,1.4-1.78,.22-.13,.43-.26,.63-.41h.01c.04,.05,.09,.1,.13,.16,.02,.02,.04,.04,.05,.06Z"/>
      <path d="M179.65,286.94c.04,.05,.08,.1,.12,.16-.04-.06-.09-.11-.13-.16h.01Z"/>
      <path d="M179.63,287.32h.01c-.2,.16-.42,.28-.64,.41,.22-.13,.43-.26,.63-.41Z"/>
      <polygon points="179.5 286.94 179.5 286.95 179.49 286.94 179.5 286.94"/>
      <path class="cls-1" d="M177.51,100.24c.51,.64,1.31,1.28,.8,2.15-.5,.86-1.38,.85-2.2,.69,.68,.07,1.35-.05,1.76-.76,.51-.87-.29-1.51-.8-2.15-4.01-5.09-5.92-10.98-6.68-17.82,.16,.07,.31,.15,.46,.23,.77,6.77,2.68,12.61,6.66,17.66Z"/>
      <path d="M175.62,102.97c.15,.04,.31,.08,.47,.11-.31-.03-.62-.11-.91-.18-2.19-.52-4.37-1.16-6.55-1.77l-.03-.06c2.34,.65,4.67,1.34,7.02,1.9Z"/>
      <path class="cls-1" d="M176.44,171.53c-.33-.13-.68-.24-1.06-.3,.55,.06,1.05,.19,1.5,.37-17.98,12.27-18.49,12.74-19.6,18.02,.08,.03,.17,.06,.25,.08-.23-.02-.46-.07-.69-.15,1.11-5.28,1.62-5.75,19.6-18.02Z"/>
      <path d="M188.47,41.54c-10.62,3.74-20.5,5.87-28.38,12.39h-.02s-.04,.04-.06,.06c-1.11,.45-2.43,.58-2.93,1.92h0v.02h0s-.01,.01-.01,.01c-11.83,7.45-19.69,18.19-24.17,31.14-6.37,18.38-9.37,37.56-11.93,56.78-1.21,9.02-1.83,18.12-2.88,27.16-.36,3.07,.25,5.91,.97,8.81,3.69,14.79,2.95,29.17-3.82,43.03-2.16-9.78-4.32-19.55-6.55-29.64-1.81,3.38-3.35,6.64-5.24,9.7-6.43,10.42-14.52,12.01-24.09,4.34-10.28-8.22-19.36-17.76-28.58-27.12-16.36-16.62-31.79-34.04-42.86-54.75-4-7.47-8.99-14.91-7.33-24.2,5.39,5.19,8.85,11.84,13.12,17.84,14.47,20.36,29.27,40.45,45.37,59.55,7.04,8.36,14.33,16.57,23.59,22.65,2.92,1.92,5.1,2.86,6.93,2.75,2.61,.04,4.5-1.92,6.72-6.11,9.47-17.91,13.37-37.24,15.53-57.19,2.25-20.92,1.25-42.13,5.9-62.8,3.85-17.17,12.5-30.29,30.56-35.07,4.07-1.08,8.16-1.82,12.3-2.26,.79-.08,1.58-.15,2.37-.21,8.15-.6,16.55-.1,25.5,1.2Z"/>
      <path d="M175.38,171.23c-4.47-.6-11.9,2.26-17.45,4.88-6.45,3.05-12.66,6.55-18.56,10.6-1.42,.97-2.8,2.32-4.77,2.23,.01-.03,.03-.05,.04-.08,1.72-.13,2.99-1.33,4.29-2.22,5.9-4.05,12.11-7.55,18.56-10.6,5.74-2.71,13.48-5.67,17.89-4.81Z"/>
      <path class="cls-1" d="M164.03,153.81c5.79,1.22,11.68,2.15,17.25,6.61-10.41,2.37-19.56,5.04-27.78,10.26-7.55,4.79-14.67,9.95-18.86,18.18-.04,0-.09,.01-.14,.01-.11,.01-.22,.01-.34,0,4.18-8.28,11.33-13.45,18.9-18.26,8.22-5.22,17.37-7.89,27.78-10.26-5.57-4.46-11.46-5.39-17.25-6.61-.39-.08-.77-.16-1.15-.23,.53,.09,1.06,.19,1.59,.3Z"/>
      <path d="M171.84,313.12c.67,.12,1.36,.33,2.06,.68-8.62,6.23-16.11,12.93-22.49,20.84-3.59,4.46-5.85,10.05-11,13.21-.11,.01-.22,.02-.32,.05-.03-.05-.06-.1-.1-.15,5.15-3.16,7.41-8.74,11-13.2,6.37-7.91,13.86-14.61,22.47-20.84-.55-.27-1.09-.46-1.62-.59Z"/>
      <path d="M169.25,53.43c1.18,.14,2.37,.51,3.56,1.27-2.58,3.34-6.84,4.48-9.77,7.5-5.51,5.67-9.43,12.19-12.85,19.14-.49,.98-.85,1.94-1.76,2.55,.04-.9,.1-1.79,.19-2.68,.7-7.85,3.1-15.14,7.81-21.65,.82-1.14,1.25-2.26,1.07-3.62,.24,0,.47,.01,.7,.01,1.23,.03,2.31-.16,2.3-1.98,.12,.01,.25,.02,.37,.03,2.69,.23,5.43-.73,8.21-.58,.05,0,.11,0,.17,0Z"/>
      <path d="M169.08,53.42c-2.78-.15-5.52,.81-8.21,.58,2.69,.11,5.43-.84,8.21-.58Z"/>
      <path class="cls-1" d="M168.56,100.98s.03,.06,.04,.09l-.12-.03s-.06-.08-.08-.13c.06,.02,.11,.04,.16,.07Z"/>
      <path d="M168.12,100.48c.09,.15,.18,.29,.28,.43-.09-.04-.18-.08-.25-.14-.05-.04-.02-.19-.03-.29Z"/>
      <path d="M168.12,100.91s.03,.06,.04,.09l-.12-.03,.08-.06Z"/>
      <path d="M168.12,100.91l-.08,.06s-.06-.08-.08-.13c.06,.02,.11,.04,.16,.07Z"/>
      <path d="M167.68,100.41c.09,.15,.18,.29,.28,.43-.09-.04-.18-.08-.25-.14-.05-.04-.02-.19-.03-.29Z"/>
      <path d="M166.49,206.26c1.87,1.27,2.18,2.46,.34,4.3-3.52,3.51-6.81,7.27-10.1,11-3.86,4.39-7.14,9.16-8.69,14.88-.28,1.07-.83,2.42,.23,2.75-1.63-.08-.98-1.63-.67-2.82,1.55-5.72,4.83-10.49,8.69-14.88,3.29-3.73,6.58-7.49,10.1-11,1.84-1.84,1.53-3.03-.34-4.3-2.72-1.84-5.62-3.14-8.91-3.69,.08,.01,.16,.03,.25,.04,3.37,.53,6.33,1.84,9.1,3.72Z"/>
      <path d="M168.15,238.05c-5.92-.9-11.93-.36-18.02,1.05-.88,.2-1.47,.21-1.86,.09,.36,.03,.82-.02,1.42-.16,6.24-1.44,12.4-1.97,18.46-.98Z"/>
      <path d="M160.5,53.97c.01,1.82-1.07,2.01-2.3,1.98,1.02-.04,1.85-.36,1.87-1.9l.27-.09c.05,0,.11,0,.16,0Z"/>
      <path d="M160.5,53.96h0c-.05,0-.11,0-.16,0,.03-.01,.07-.03,.1-.04h.03l-.03,.03,.06-.02v.03Z"/>
      <path d="M160.5,53.91v.02h-.03s.02-.02,.03-.02Z"/>
      <path d="M160.5,53.9h0s-.02,.02-.03,.02h-.03l.06-.02Z"/>
      <path d="M160.5,53.93l-.06,.02s.02-.02,.03-.02h.03Z"/>
      <path d="M159.72,121.47c.32,.05,.65,.1,.97,.16-.32-.05-.64-.11-.97-.16Z"/>
      <path d="M160.34,53.96l-.27,.09v-.11s0,0,0-.01h.01c.08,.01,.17,.02,.25,.03Z"/>
      <path d="M160.08,53.93s0,.01,0,.01h0s0-.01,0-.01Z"/>
      <path d="M157.5,55.87c.44-1.22,1.54-1.46,2.57-1.82-.02,1.54-.85,1.86-1.87,1.9-.23-.01-.47-.03-.7-.04v-.04Z"/>
      <path d="M157.5,55.94c.18,1.36-.25,2.48-1.07,3.62-4.71,6.51-7.11,13.8-7.81,21.65-.09,.89-.15,1.78-.19,2.68-.07,.06-.14,.11-.22,.15,0,0-.19-.15-.19-.16,.02-.46,.04-.91,.08-1.36,.03-.43,.06-.86,.1-1.29v-.06c.7-7.84,3.1-15.13,7.8-21.64,.77-1.07,1.2-2.12,1.09-3.37,.11-.08,.23-.15,.35-.23h0s.02,0,.03,.01c0-.01,0,0,.02,0Z"/>
      <path d="M157.5,55.91v.03s-.01-.01-.02,0c0-.01,0-.02,0-.03h.01Z"/>
      <path class="cls-1" d="M166.8,148.42c-6.37-.94-12.8-1.28-19.37-.3-7.28,1.08-14.37,2.66-18.62,9.57l-.6,.18c4.24-7.12,11.41-8.73,18.78-9.82,6.72-1,13.3-.63,19.81,.37Z"/>
      <path d="M157.49,55.91s0,.02,0,.03c-.01-.01-.02-.01-.03-.01,.01,0,.03-.02,.04-.03h0Z"/>
      <path d="M157.44,55.93c-.12,.08-.24,.15-.35,.23,0-.07-.01-.15-.02-.22h0s0-.02,0-.03c.12,.01,.24,.02,.36,.02Z"/>
      <path d="M157.08,55.91s0,.01,0,.02v-.02h0Z"/>
      <path d="M157.07,55.94l-.02,.04s.01-.03,.01-.04h.01Z"/>
      <path d="M161.63,153.38c-11.38-1.71-22.19,1.34-32.98,4.56,.05-.09,.1-.17,.16-.25,10.73-3.2,21.49-6.14,32.82-4.31Z"/>
      <path d="M160.6,40.55c-4.14,.44-8.23,1.18-12.3,2.26-18.06,4.78-26.71,17.9-30.56,35.07-4.65,20.67-3.65,41.88-5.9,62.8-2.16,19.95-6.06,39.28-15.53,57.19-2.22,4.19-4.11,6.15-6.72,6.11,2.41-.15,4.23-2.13,6.33-6.1,9.46-17.91,13.36-37.23,15.52-57.18,2.25-20.91,1.25-42.12,5.89-62.79,3.85-17.16,12.5-30.28,30.55-35.06,4.21-1.11,8.43-1.87,12.72-2.3Z"/>
      <path d="M148.43,83.89v.03c-.08,.08-.16,.15-.22,.23v-.05s-.19-.15-.19-.16v-.06s.19,.16,.19,.16c.08-.04,.15-.09,.22-.15Z"/>
      <path d="M148.21,84.1v.05s-.01,.01-.01,.01c-.74,.78-.89,1.65-.3,2.8-.01,.2-.04,.41-.06,.63-1.07-1.6-.9-2.67,.17-3.65h.01s.19,.16,.19,.16Z"/>
      <path d="M148.2,81.23c-.04,.43-.07,.86-.1,1.29,.02-.43,.06-.86,.1-1.29Z"/>
      <path d="M148.1,82.52c-.04,.45-.06,.9-.08,1.36v.06h-.01c.02-.48,.05-.95,.09-1.42Z"/>
      <path d="M148.2,84.16c-.09,.86-.18,1.72-.3,2.8-.59-1.15-.44-2.02,.3-2.8Z"/>
      <path d="M141.1,367.87c-.14,.13-.28,.27-.42,.4,.02-.09,.02-.21,.07-.26,.09-.07,.22-.1,.34-.15h.01Z"/>
      <path d="M134.64,188.86s-.03,.05-.04,.08h-.03s-.07-.07-.07-.07c.05,0,.1-.01,.14-.01Z"/>
      <path class="cls-1" d="M134.6,188.94l-.03,.06-.07,.07v-.07l.06-.06h.04Z"/>
      <path d="M134.57,188.93h-.01s-.04,.01-.06,.01v-.07l.07,.06Z"/>
      <path d="M134.56,188.94l-.06,.06v-.06h.06Z"/>
      <path d="M133.62,189.93c.29-.28,.59-.57,.88-.86-.01,.58-.34,.82-.88,.86Z"/>
      <path d="M134.16,188.94l-.03,.06-.07-.06h.1Z"/>
      <path d="M133.18,189.86c.29-.28,.59-.57,.88-.86-.01,.58-.34,.82-.88,.86Z"/>
      <path d="M133.62,189.93l-.07,.07-.25,.28,.2-.34s.08,0,.12-.01Z"/>
      <path d="M133.18,189.86l-.07,.07-.05-.06s.08,0,.12-.01Z"/>
      <polygon points="133.06 189.87 133.11 189.93 132.86 190.21 133.06 189.87"/>
      <path d="M128.81,157.69c-.06,.08-.11,.16-.16,.25-.04,.01-.07,.02-.11,.03-.03,.03-.06,.05-.09,.08-.19,0-.39,.02-.57,.04,.04-.03,.09-.07,.13-.11,.05,0,.09-.01,.14-.01,.02-.03,.04-.07,.06-.1l.6-.18Z"/>
      <path class="cls-1" d="M128.65,157.94s-.04,.07-.06,.1c-.05,0-.09,.01-.14,.01,.03-.03,.06-.05,.09-.08,.04,0,.07-.02,.11-.03Z"/>
      <path class="cls-1" d="M128.45,158.05c-.2,.18-.4,.36-.59,.53-.05-.12-.1-.23-.14-.34,.05-.04,.1-.09,.16-.15,.18-.02,.38-.03,.57-.04Z"/>
      <path d="M128.21,157.87s-.04,.07-.06,.1l-.05-.07s.07-.02,.11-.03Z"/>
      <path d="M128.1,157.9l.05,.07c-.05,0-.09,.01-.14,.01,.03-.03,.06-.05,.09-.08Z"/>
      <path d="M128.01,157.98s-.09,.08-.13,.11c-.07,0-.14,0-.21,.02,.02,.04,.03,.09,.05,.13l-.3,.27c-.07-.16-.13-.31-.19-.47,.25-.03,.52-.04,.78-.06Z"/>
      <path d="M127.88,158.09c-.06,.06-.11,.11-.16,.15-.02-.04-.03-.09-.05-.13,.07-.01,.14-.01,.21-.02Z"/>
      <path d="M99.02,59.86c4.54-.28,4.85,1.06,3.23,4.91-6.86,16.34-12.88,32.99-17.28,50.19-3.08,12.02-3.4,24.49-5.79,36.63-.32,1.62-.21,3.29-1.69,4.8-2.63-5.31-3.68-11.02-5.59-16.43-.74-2.08-.85-6.03-3.61-5.62-3.27,.48-5.47,3.7-6.04,7.18-.54,3.27-.26,6.59,2.44,9.84-7.14-1.82-10.1-7.15-10.05-16.78-4.55,1.17-8.91,2.93-12.59,5.63-2.45,1.81-2.89,.81-3.81-1.02-6.76-13.38-6.69-26.71,.3-39.98,.6-1.12,2.13-2.1,1.13-3.49-1.06-1.45-2.41,0-3.65,.1-5.72,.53-11.45,1.02-17.5,1.55,.47-2.94,2.94-4.3,4.72-5.95,15.49-14.4,33.49-24.13,54.21-28.67,7.1-1.56,14.29-2.44,21.57-2.89Z"/>
    </g>
  </g>
</svg>